<ttFont>
          <CharString index="0">
            182 hlineto
            -198 650 rlineto
            -208 hlineto
            -198 -650 rlineto
            176 hlineto
            32 138 rlineto
            182 hlineto
            -151 133 rmoveto
            11 45 16 62 16 78 14 66 rlinecurve
            4 hlineto
            16 -65 16 -79 16 -62 11 -45 rcurveline
            endchar
          </CharString>
          <CharString index="1">
            -45 -12 132 88 84 44 80.5 -80.5 84 94 132 4 callsubr
            hintmask 11011100
            436 168 rmoveto
            -30 -22 -26 -18 -34 hhcurveto
            -46 -33 30 58 -18 hvcurveto
            155 84 -167 hlineto
            -1 8 0 9 9 vvcurveto
            18 208 84 -197 vlineto
            61 15 32 33 46 hhcurveto
            32 24 -16 -22 24 hvcurveto
            94 92 rlineto
            52 -46 -62 26 -60 hhcurveto
            hintmask 11101100
            -134 -103 -81 -146 -34 hvcurveto
            -63 -5 rlineto
            -78 53 vlineto
            -1 -8 0 -8 -8 vvcurveto
            -22 vlineto
            -52 -4 rlineto
            -78 63 vlineto
            -146 32 102 -74 127 hhcurveto
            72 64 32 60 50 hvcurveto
            endchar
          </CharString>
          <CharString index="2">
            140 278 hlineto
            164 -78 70 -130 -78 -72 -24 -42 -70 vhcurveto
            60 -112 rlineto
            28 52 38 14 36 hhcurveto
            44 22 -16 -36 4 hvcurveto
            -192 -20 -80 -58 -104 vvcurveto
            return
          </CharString>
          <CharString index="3">
            128 120 96 166 166 -120 96 -128 -128 -120 -96 -166 -166 120 -96 128 hvcurveto
            138 vmoveto
            -52 -20 48 76 76 20 48 52 52 20 -48 -76 -76 -20 -48 -52 hvcurveto
            return
          </CharString>
          <CharString index="4">
            -45 15 callsubr
            136 120 130 134 hstemhm
            300 172 -152 172 hintmask 11101000
            246 -12 rmoveto
            132 114 66 120 80 -50 50 -72 22 hvcurveto
            4 vlineto
            hintmask 11110000
            68 30 34 46 61 vvcurveto
            115 -90 64 -140 -78 -66 -30 -52 -62 vhcurveto
            86 -104 rlineto
            34 40 30 18 42 hhcurveto
            43 23 -20 -38 -44 -32 -28 -106 hvcurveto
            -120 vlineto
            hintmask 11101000
            133 25 -28 -48 -40 -36 -20 -56 -45 -46 24 36 -39 hvcurveto
            -78 -108 rlineto
            -56 48 75 -34 103 hhcurveto
            endchar
          </CharString>
          <CharString index="5">
            rmoveto
            -87 callgsubr
            -39 callsubr
            hvcurveto
            return
          </CharString>
          <CharString index="6">
            -45 15 callsubr
            164 118 82 144 hstem
            80 152 88 -30 callgsubr
            252 -12 rmoveto
            129 111 82 142 134 -94 62 -110 -21 -17 -2 -8 -22 hvcurveto
            8 92 rlineto
            228 144 -376 hlineto
            -16 -326 74 -48 rlineto
            24 38 16 6 34 hhcurveto
            50 36 -28 -54 -56 -34 -26 -60 -46 -44 26 34 -38 hvcurveto
            -76 -108 rlineto
            -52 52 74 -38 104 hhcurveto
            endchar
          </CharString>
          <CharString index="7">
            -57 callgsubr
            hintmask 00111110
            12 -48 rlineto
            -105 callsubr
            hintmask 01011110
            -9 callgsubr
            hintmask 10011110
            -95 callgsubr
            endchar
          </CharString>
          <CharString index="8">
            646 rmoveto
            -120 -100 -80 -136 -136 84 -60 108 34 54 22 41 31 hvcurveto
            -128 -6 -48 -43 -63 hhcurveto
            -36 -40 22 22 -20 hvcurveto
            -90 -102 rlineto
            -42 42 66 -38 90 hhcurveto
            136 126 110 230 230 -126 88 -122 hvcurveto
            6 -292 rmoveto
            -36 -34 15 61 67 32 21 36 31 38 -21 -89 14 hvcurveto
            -39 -23 -29 -15 -29 hhcurveto
            endchar
          </CharString>
          <CharString index="9">
            562 rmoveto
            47 33 35 45 45 -33 35 -47 -47 -33 -35 -45 -45 33 -35 47 hvcurveto
            228 hmoveto
            47 33 35 45 45 -33 35 -47 -47 -33 -35 -45 -45 33 -35 47 hvcurveto
            return
          </CharString>
          <CharString index="10">
            rmoveto
            182 84 104 222 hvcurveto
            336 -166 -356 vlineto
            -116 -32 -42 -68 -68 -30 42 116 vhcurveto
            356 -172 -336 vlineto
            -222 88 -104 182 vhcurveto
            endchar
          </CharString>
          <CharString index="11">
            694 rmoveto
            46 32 34 44 44 -32 34 -46 -46 -32 -34 -44 -44 32 -34 46 hvcurveto
            228 hmoveto
            46 32 34 44 44 -32 34 -46 -46 -32 -34 -44 -44 32 -34 46 hvcurveto
            return
          </CharString>
          <CharString index="12">
            -24 callgsubr
            hintmask 1111010010100000
            -80 callsubr
            hintmask 1110110100100000
            -48 callsubr
            hintmask 1111010010100000
            -23 callgsubr
            hintmask 1111011000100000
            -46 -24 -24 -31 -41 vvcurveto
            hintmask 1111011000010000
            -90 96 -34 114 vhcurveto
            hintmask 1110110100100000
            -52 callgsubr
            hintmask 1111011000010000
            -73 callgsubr
          </CharString>
          <CharString index="13">
            105 -12 130 432 112 hstemhm
            22 162 -86 141 89 130 hintmask 11101000
            670 126 rmoveto
            -31 4 -38 12 -39 19 49 66 34 71 23 76 rrcurveto
            -156 hlineto
            -15 -56 -25 -48 -30 -40 -41 29 -40 33 -33 35 rrcurveto
            66 43 64 53 85 vvcurveto
            94 -68 60 -104 vhcurveto
            hintmask 11011000
            -116 -72 -82 -94 -39 14 -45 25 -45 hvcurveto
            hintmask 11101000
            -62 -38 -53 -52 -91 vvcurveto
            -98 73 -90 151 83 70 24 39 57 vhcurveto
            58 -31 59 -22 57 -10 rrcurveto
            hintmask 11011000
            -391 498 rmoveto
            42 24 22 27 25 13 -14 -28 -38 -30 -25 -41 -24 vhcurveto
            -12 23 -6 22 20 vvcurveto
            hintmask 11101000
            -55 -300 rmoveto
            23 12 19 18 19 vhcurveto
            34 -40 40 -38 44 -35 rrcurveto
            -10 -22 -21 -6 -21 hhcurveto
            -52 -32 28 40 hvcurveto
            endchar
          </CharString>
          <CharString index="14">
            rmoveto
            68 46 30 48 40 hvcurveto
            4 hlineto
            hintmask 00111110
            12 -66 rlineto
            140 500 -42 callgsubr
            hintmask 10011110
            -322 vlineto
            -32 -22 -18 -12 -32 hhcurveto
            -34 -16 16 64 hvcurveto
            286 -172 -308 vlineto
            hintmask 01011110
            -124 46 -80 110 vhcurveto
            endchar
          </CharString>
          <CharString index="15">
            -26 124 rlineto
            -4 -12 -16 -4 -16 hhcurveto
            -32 -28 18 55 hvcurveto
            171 114 134 -114 130 -142 vlineto
            -20 -130 -76 -6 rlineto
            -128 66 -174 vlineto
            return
          </CharString>
          <CharString index="16">
            58 42 46 58 58 -42 46 -58 -58 -42 -46 -58 -58 42 -46 58 hvcurveto
            return
          </CharString>
          <CharString index="17">
            624 hmoveto
            -136 206 124 373 14 callsubr
            -29 -120 -29 -96 -59 92 -75 124 rlineto
            -182 hlineto
            93 -154 -32 -82 -112 -343 rlineto
            172 hlineto
            79 263 166 -263 rlineto
            return
          </CharString>
          <CharString index="18">
            167 -8 68 68 98 194 98 70 68 hstem
            44 76 72 121 319 76 vstem
            376 -8 rmoveto
            178 154 126 208 207 -154 123 -178 -178 -154 -122 -208 -208 154 -126 178 hvcurveto
            68 vmoveto
            -146 -110 106 160 160 110 102 146 146 110 -102 -160 -160 -110 -106 -146 hvcurveto
            14 68 rmoveto
            49 43 20 30 38 hvcurveto
            -54 78 rlineto
            -18 -24 -18 -12 -30 hhcurveto
            -50 -31 38 60 52 28 44 59 24 18 -12 -20 19 hvcurveto
            63 70 rlineto
            32 -32 -40 28 -64 hhcurveto
            -102 -94 -76 -118 -120 82 -76 116 hvcurveto
            endchar
          </CharString>
          <CharString index="19">
            118 54 66 94 2 hvcurveto
            -96 16 rlineto
            -40 -6 -24 -30 -48 hhcurveto
            -48 -24 30 40 -6 hvcurveto
            -96 -16 rlineto
            return
          </CharString>
          <CharString index="20">
            -45 0 144 368 6 callsubr
            302 164 vstem
            36 hmoveto
            460 144 -106 hlineto
            -28 -46 -4 -4 -32 hvcurveto
            86 88 96 112 102 vvcurveto
            126 -90 82 -128 -94 -60 -32 -70 -66 vhcurveto
            92 -92 rlineto
            30 30 32 30 42 hhcurveto
            46 32 -27 -57 -86 -116 -106 -150 -138 hvcurveto
            endchar
          </CharString>
          <CharString index="21">
            -45 -96 134 254 124 110 136 0 -20 hstemhm
            35 471 hintmask 01101000
            432 526 rmoveto
            18 14 -6 -4 11 hvcurveto
            hintmask 01011000
            31 128 rlineto
            hintmask 11101000
            10 -20 -46 8 -23 hhcurveto
            -141 -59 -56 -152 -17 hvcurveto
            -4 -38 rlineto
            -8 hlineto
            -76 -6 rlineto
            -118 69 vlineto
            -13 -118 -13 -118 -15 -16 -42 -2 rlinecurve
            -14 1 -14 2 -14 5 -21 -127 rcurveline
            14 -8 35 -6 42 -1 rrcurveto
            145 39 100 118 14 hvcurveto
            21 170 rlineto
            109 124 -94 hlineto
            6 52 rlineto
            hintmask 01101000
            39 5 22 19 39 hhcurveto
            endchar
          </CharString>
          <CharString index="22">
            rmoveto
            124 54 61 135 52 hvcurveto
            168 492 rlineto
            -164 hlineto
            -50 -192 -12 -48 -10 -46 -10 -48 rlinecurve
            -4 hlineto
            -12 50 -10 46 -14 46 -60 192 rcurveline
            -42 callgsubr
            190 -482 -6 -22 rlineto
            -30 -10 -22 -20 -46 hhcurveto
            -10 -13 4 2 -9 hvcurveto
            return
          </CharString>
          <CharString index="23">
            328 vlineto
            24 26 18 14 32 hhcurveto
            34 16 -16 -64 hvcurveto
            -286 172 308 vlineto
            124 -46 80 -110 -68 -48 -34 -30 -34 vhcurveto
            8 86 rlineto
            162 -172 vlineto
            return
          </CharString>
          <CharString index="24">
            -108 308 54 110 43 48 47 52 54 hstem
            36 60 58 64 44 68 50 60 vstem
            238 308 rmoveto
            112 90 86 118 118 -90 86 -112 -112 -90 -86 -118 -118 90 -86 112 hvcurveto
            54 vmoveto
            -84 -58 58 92 92 58 58 84 84 58 -58 -92 -92 -58 -58 -84 hvcurveto
            -84 54 rmoveto
            64 56 24 hlineto
            28 -56 rlineto
            66 hlineto
            -40 74 rlineto
            24 12 10 20 22 vvcurveto
            44 -34 22 -48 vhcurveto
            -94 hlineto
            64 -95 rmoveto
            48 18 vlineto
            16 10 -10 -13 -12 -8 -13 -18 hvcurveto
            endchar
          </CharString>
          <CharString index="25">
            rmoveto
            308 108 -308 hlineto
            return
          </CharString>
          <CharString index="26">
            -225 -152 90 290 100 290 90 hstemhm
            30 138 -62 142 hintmask 11101000
            238 -152 rmoveto
            70 90 -16 hlineto
            -37 -11 10 52 hvcurveto
            51 4 47 58 vvcurveto
            80 -27 28 -53 12 vhcurveto
            4 vlineto
            53 12 27 28 80 58 -4 47 51 vvcurveto
            52 11 10 37 vhcurveto
            16 90 -70 hlineto
            -92 -40 -36 -110 hvcurveto
            -70 10 -30 -62 vvcurveto
            hintmask 11110000
            -34 -22 -36 -64 -2 vhcurveto
            -100 vlineto
            hintmask 11101000
            64 -2 22 -36 -34 -62 -10 -30 -70 vvcurveto
            -110 40 -36 92 vhcurveto
            endchar
          </CharString>
          <CharString index="27">
            -75 hlineto
            -50 -20 8 22 14 2 6 10 9 hvcurveto
            -5 22 18 -2 16 hhcurveto
            112 90 48 118 20 -4 20 -4 12 hvcurveto
            72 124 -186 hlineto
            return
          </CharString>
          <CharString index="28">
            -485 9 -21 674 -20 hstem
            -172 444 vstem
            -172 -12 rmoveto
            96 hlineto
            348 674 rlineto
            -96 hlineto
            endchar
          </CharString>
          <CharString index="29">
            rmoveto
            -101 callgsubr
            return
          </CharString>
          <CharString index="30">
            11 callsubr
            190 158 -116 114 -158 -188 rlineto
            return
          </CharString>
          <CharString index="31">
            -107 -182 138 348 208 0 -20 hstemhm
            40 164 -52 200 hintmask 00000000
            hintmask 11001000
            252 304 rmoveto
            -91 callsubr
            hintmask 10110000
            -14 -486 rmoveto
            80 68 38 56 50 hvcurveto
            -94 86 rlineto
            -24 -26 -22 -18 -34 hhcurveto
            -30 -26 14 36 64 142 56 -20 130 hvcurveto
            -150 hlineto
            10 -110 -146 -32 -120 vvcurveto
            -126 88 -50 110 vhcurveto
            endchar
          </CharString>
          <CharString index="32">
            -221 368 82 64 68 32 94 hstem
            26 114 68 120 vstem
            128 360 rmoveto
            36 30 16 24 24 hvcurveto
            4 hlineto
            10 -32 rlineto
            96 186 hlineto
            106 -56 48 -86 -52 -50 -16 -28 -48 vhcurveto
            42 -78 rlineto
            18 35 27 10 24 hhcurveto
            27 14 -9 -23 3 hvcurveto
            -128 -12 -54 -38 -70 vvcurveto
            -54 38 -48 64 vhcurveto
            41 90 rmoveto
            -19 -10 8 14 18 16 18 52 6 hvcurveto
            -44 vlineto
            -12 -12 -10 -8 -17 hhcurveto
            endchar
          </CharString>
          <CharString index="33">
            115 406 116 38 116 -100 100 hstemhm
            86 110 122 100 160 100 hintmask 10111100
            86 360 rmoveto
            110 216 82 100 -274 -100 82 hlineto
            232 -216 rmoveto
            100 80 hlineto
            -12 120 rlineto
            4 hlineto
            50 -154 rlineto
            76 hlineto
            hintmask 11011100
            50 154 rlineto
            4 hlineto
            -12 -120 rlineto
            -80 100 316 -122 vlineto
            -36 -92 -20 -62 rlineto
            -4 hlineto
            hintmask 10111100
            -20 62 -36 92 rlineto
            -122 hlineto
            endchar
          </CharString>
          <CharString index="34">
            -45 0 222 -80 80 50 80 282 -20 hstemhm
            184 20 callgsubr
            hintmask 10111000
            184 5 callgsubr
            hintmask 01111000
            142 150 80 -150 50 150 80 -114 vlineto
            140 282 14 callsubr
            -40 -118 -46 -130 rlineto
            -4 hlineto
            -16 42 -15 44 -15 44 -40 118 rcurveline
            -176 hlineto
            140 -282 rlineto
            -114 -80 150 -50 -150 -80 150 hlineto
            endchar
          </CharString>
          <CharString index="35">
            -82 callsubr
            endchar
          </CharString>
          <CharString index="36">
            680 rmoveto
            102 80 rlineto
            4 hlineto
            102 -80 74 44 -84 110 rlineto
            -188 hlineto
            -84 -110 rlineto
            return
          </CharString>
          <CharString index="37">
            -45 0 138 328 168 hstem
            202 -30 callgsubr
            66 hmoveto
            422 138 -114 496 -126 hlineto
            -48 -30 -46 -18 -72 -14 rrcurveto
            -106 120 -328 -136 vlineto
            endchar
          </CharString>
          <CharString index="38">
            -235 360 90 52 66 50 90 hstem
            22 112 96 100 vstem
            196 360 rmoveto
            38 48 12 26 38 hvcurveto
            -40 70 rlineto
            -14 -24 -22 -4 -22 hhcurveto
            -36 -30 10 42 -10 hvcurveto
            188 hlineto
            4 14 2 10 20 vvcurveto
            90 -48 72 -98 -86 -76 -68 -106 -108 76 -66 98 vhcurveto
            -62 208 rmoveto
            36 6 20 14 25 hhcurveto
            33 12 -22 -28 hvcurveto
            endchar
          </CharString>
          <CharString index="39">
            -66 112 rlineto
            -18 -24 -28 -14 -28 hhcurveto
            -54 -42 48 76 76 38 48 64 18 16 -6 -18 22 hvcurveto
            80 110 rlineto
            32 -38 -48 20 -60 hhcurveto
            -142 -126 -96 -166 return
          </CharString>
          <CharString index="40">
            72 15 callgsubr
            162 hlineto
            62 88 144 -250 rlineto
            188 hlineto
            -232 386 194 264 rlineto
            -188 hlineto
            -164 -242 rlineto
            -4 242 -42 callgsubr
            return
          </CharString>
          <CharString index="41">
            700 rmoveto
            188 hlineto
            84 110 -74 44 -102 -80 rlineto
            -4 hlineto
            -102 80 -74 -44 rlineto
            return
          </CharString>
          <CharString index="42">
            rmoveto
            92 hlineto
            34 212 6 148 14 callsubr
            6 -148 rlineto
            return
          </CharString>
          <CharString index="43">
            rlineto
            136 vlineto
            -168 -10 10 178 rlineto
            -136 hlineto
            10 -178 -168 10 rlineto
            -136 vlineto
            168 return
          </CharString>
          <CharString index="44">
            -19 -20 14 -18 22 return
          </CharString>
          <CharString index="45">
            410 134 -196 hlineto
            190 274 rlineto
            92 -382 -134 168 vlineto
            -190 -274 rlineto
            return
          </CharString>
          <CharString index="46">
            11 callsubr
            80 50 45 113 2 hvcurveto
            -106 6 rlineto
            -36 -4 -10 -10 -16 hhcurveto
            return
          </CharString>
          <CharString index="47">
            22 13 18 20 return
          </CharString>
          <CharString index="48">
            -245 194 120 hstem
            44 252 vstem
            44 194 rmoveto
            252 120 -252 hlineto
            endchar
          </CharString>
          <CharString index="49">
            -85 52 400 hstem
            54 396 vstem
            116 52 -82 callgsubr
            262 -50 2 callsubr
          </CharString>
          <CharString index="50">
            144 116 144 102 144 return
          </CharString>
          <CharString index="51">
            -209 360 94 160 94 hstem
            22 122 88 122 vstem
            188 360 rmoveto
            86 80 64 109 110 -80 65 -86 -86 -80 -65 -110 -109 80 -64 86 hvcurveto
            94 vmoveto
            -33 -11 31 48 49 11 32 33 33 11 -32 -49 -48 -11 -31 -33 hvcurveto
            endchar
          </CharString>
          <CharString index="52">
            -28 -36 52 -70 hhcurveto
            -73 -57 -42 -110 -6 hvcurveto
            110 -8 rlineto
            34 4 12 8 16 hhcurveto
            return
          </CharString>
          <CharString index="53">
            -225 -159 -21 hstem
            68 138 vstem
            200 -180 rmoveto
            108 44 rlineto
            -72 130 -30 146 138 vvcurveto
            138 30 146 72 130 vhcurveto
            -108 44 rlineto
            -84 -138 -48 -144 -176 vvcurveto
            -176 48 -144 84 -138 vhcurveto
            endchar
          </CharString>
          <CharString index="54">
            -85 52 400 hstem
            50 396 vstem
            184 52 -74 callgsubr
            334 -140 8 callsubr
          </CharString>
          <CharString index="55">
            -225 -159 -21 hstem
            154 138 vstem
            160 -180 rmoveto
            84 138 48 144 176 vvcurveto
            176 -48 144 -84 138 vhcurveto
            -108 -44 rlineto
            72 -130 30 -146 -138 vvcurveto
            -138 -30 -146 -72 -130 vhcurveto
            endchar
          </CharString>
          <CharString index="56">
            -21 138 133 251 128 return
          </CharString>
          <CharString index="57">
            -5 324 360 hstem
            77 166 94 166 vstem
            114 324 -65 callsubr
            294 -212 23 callsubr
          </CharString>
          <CharString index="58">
            686 rmoveto
            -36 callsubr
            hintmask 1101101010000000
            -55 callsubr
            hintmask 1110010100000000
            28 36 -52 70 hhcurveto
            hintmask 1101110010000000
            return
          </CharString>
          <CharString index="59">
            8 -24 -28 4 -28 hhcurveto
            -110 -104 -58 -124 -58 32 -46 36 -24 hvcurveto
            -4 vlineto
            return
          </CharString>
          <CharString index="60">
            562 -39 callgsubr
            return
          </CharString>
          <CharString index="61">
            130 80 112 72 130 return
          </CharString>
          <CharString index="62">
            -265 -157 -21 200 40 callgsubr
            vstem
            160 196 rmoveto
            -93 callgsubr
          </CharString>
          <CharString index="63">
            -113 321 391 hstem
            30 412 vstem
            152 321 rmoveto
            84 91 84 -91 70 51 -61 107 113 52 -27 83 -121 -25 -14 123 rlineto
            -88 hlineto
            -14 -122 -121 24 -27 -83 112 -52 -60 -107 rlineto
            endchar
          </CharString>
          <CharString index="64">
            313 579 rmoveto
            -242 hlineto
            -40 -177 -4 -110 8 -68 172 2 rlinecurve
            30 107 rlineto
            -45 1 26 33 hvcurveto
            9 53 rlineto
            59 hlineto
            66 19 -57 -58 hvcurveto
            -530 182 520 vlineto
            150 -68 109 -147 vhcurveto
            return
          </CharString>
          <CharString index="65">
            -7 -12 146 -125 -21 33 -8 callgsubr
            return
          </CharString>
          <CharString index="66">
            164 188 hlineto
            80 -14 94 -8 74 vhcurveto
            4 hlineto
            62 -145 144 -291 rlineto
            176 650 -164 -188 hlineto
            -80 14 -98 8 -70 vhcurveto
            -4 hlineto
            -62 146 -144 290 rlineto
            -176 hlineto
            endchar
          </CharString>
          <CharString index="67">
            147 -127 150 122 138 -131 159 hintmask 00000000
            hintmask 11100100
            return
          </CharString>
          <CharString index="68">
            -60 callsubr
            -60 callgsubr
            return
          </CharString>
          <CharString index="69">
            6 callgsubr
            20 hmoveto
            227 hlineto
            147 69 109 150 hvcurveto
            61 vlineto
            150 -69 109 -147 vhcurveto
            -227 -134 175 hlineto
            66 20 -57 -58 hvcurveto
            -81 vlineto
            -58 -20 -57 -66 vhcurveto
            -175 hlineto
            return
          </CharString>
          <CharString index="70">
            72 15 callgsubr
            258 194 -258 -5 callsubr
            -242 -194 242 -42 callgsubr
            return
          </CharString>
          <CharString index="71">
            73 57 42 110 6 hvcurveto
            -110 8 rlineto
            -34 -4 -12 -8 -16 hhcurveto
            return
          </CharString>
          <CharString index="72">
            -12 117 rlineto
            -181 hlineto
            11 -117 rlineto
            return
          </CharString>
          <CharString index="73">
            88 34 32 36 22 26 -6 -18 20 vhcurveto
            -184 vlineto
            return
          </CharString>
          <CharString index="74">
            172 224 hlineto
            196 426 rlineto
            -180 hlineto
            -48 -136 -17 -49 -17 -45 -17 -51 rlinecurve
            -4 hlineto
            -17 51 -16 45 -16 49 -48 136 rcurveline
            -184 hlineto
            196 -426 rlineto
            endchar
          </CharString>
          <CharString index="75">
            -162 80 -100 124 vhcurveto
            46 140 rmoveto
            -46 -28 34 90 hvcurveto
            return
          </CharString>
          <CharString index="76">
            -234 172 return
          </CharString>
          <CharString index="77">
            6 callgsubr
            463 134 rmoveto
            256 vlineto
            -33 callgsubr
            -258 -134 206 hlineto
            -18 callsubr
            -266 -251 -134 251 vlineto
            246 134 hlineto
            return
          </CharString>
          <CharString index="78">
            -128 -84 rlineto
            -4 hlineto
            -128 84 rlineto
            return
          </CharString>
          <CharString index="79">
            191 vstem
            272 -1 rmoveto
            237 56 172 171 9 hvcurveto
            8 123 6 114 rlineto
            -540 -134 344 hlineto
            -10 -153 -7 -108 -32 -45 -85 -6 rlinecurve
            return
          </CharString>
          <CharString index="80">
            96 72 78 130 130 -72 76 -96 -96 -72 -76 -130 -130 72 -78 96 hvcurveto
            return
          </CharString>
          <CharString index="81">
            94 46 48 58 58 -46 48 -94 -94 -46 -48 -58 -58 46 -48 94 hvcurveto
            62 vmoveto
            -21 -17 18 26 26 17 18 21 21 17 -18 -26 -26 -17 -18 -21 hvcurveto
            endchar
          </CharString>
          <CharString index="82">
            -54 -32 72 -84 hhcurveto
            -52 -54 -28 -80 -54 hvcurveto
            88 -68 rlineto
            34 20 24 22 26 hhcurveto
            return
          </CharString>
          <CharString index="83">
            -21 366 146 41 callgsubr
            58 172 return
          </CharString>
          <CharString index="84">
            107 -49 callgsubr
            return
          </CharString>
          <CharString index="85">
            6 callgsubr
            33 hmoveto
            313 403 hlineto
            93 -44 68 -83 10 vhcurveto
            -147 18 -22 -132 72 -9 rlineto
            27 -3 15 -8 -42 vvcurveto
            -264 -131 vlineto
            return
          </CharString>
          <CharString index="86">
            rmoveto
            -58 -46 -38 -56 -60 48 -34 52 hvcurveto
            7 hlineto
            -49 -41 -47 -80 -26 vhcurveto
            34 -90 rlineto
            130 36 68 90 118 vvcurveto
            98 -40 58 -74 vhcurveto
            endchar
          </CharString>
          <CharString index="87">
            -225 116 292 hstem
            40 280 vstem
            180 116 rmoveto
            80 60 64 82 82 -60 64 -80 -80 -60 -64 -82 -82 60 -64 80 hvcurveto
            endchar
          </CharString>
          <CharString index="88">
            -45 -12 128 164 120 108 138 hstem
            return
          </CharString>
          <CharString index="89">
            30 15 -15 -30 hvcurveto
            return
          </CharString>
          <CharString index="90">
            196 15 callgsubr
            506 172 144 -516 -144 172 hlineto
            return
          </CharString>
          <CharString index="91">
            588 -82 callsubr
            return
          </CharString>
          <CharString index="92">
            -58 110 rlineto
            -20 -36 -30 -14 -34 hhcurveto
            -51 -41 20 56 -14 hvcurveto
            275 hlineto
            3 12 4 26 30 vvcurveto
            134 -66 112 -136 -56 return
          </CharString>
          <CharString index="93">
            -225 -152 90 680 90 hstem
            148 128 vstem
            52 -152 rmoveto
            224 860 -224 -90 96 -680 -96 hlineto
            endchar
          </CharString>
          <CharString index="94">
            -45 21 -21 142 130 222 140 hstem
            return
          </CharString>
          <CharString index="95">
            hmoveto
            182 328 hlineto
            36 5 47 13 34 vhcurveto
            return
          </CharString>
          <CharString index="96">
            258 75 47 callsubr
            return
          </CharString>
          <CharString index="97">
            472 120 -472 hlineto
            return
          </CharString>
          <CharString index="98">
            -20 0 callgsubr
            return
          </CharString>
          <CharString index="99">
            578 rmoveto
            176 hlineto
            hintmask 11011100
            106 128 -64 60 rlineto
            hintmask 11101100
            -29 callsubr
            hintmask 11011100
            -64 -60 rlineto
            return
          </CharString>
          <CharString index="100">
            187 579 rmoveto
            138 -162 -272 278 vlineto
            -172 -445 rlineto
            182 hlineto
            172 431 rlineto
            148 vlineto
            return
          </CharString>
          <CharString index="101">
            182 462 hlineto
            -35 callsubr
            return
          </CharString>
          <CharString index="102">
            172 650 -172 return
          </CharString>
          <CharString index="103">
            6 callgsubr
            270 hmoveto
            182 390 hlineto
            -33 callgsubr
            -257 -134 205 hlineto
            -18 callsubr
            return
          </CharString>
          <CharString index="104">
            -251 -160 870 hstem
            34 286 vstem
            210 -160 rmoveto
            110 hlineto
            -176 870 rlineto
            -110 hlineto
            endchar
          </CharString>
          <CharString index="105">
            -251 -160 870 hstem
            14 286 vstem
            14 -160 rmoveto
            110 hlineto
            176 870 rlineto
            -110 hlineto
            endchar
          </CharString>
          <CharString index="106">
            -21 366 130.5 -130.5 134 return
          </CharString>
          <CharString index="107">
            556 662 rmoveto
            -268 -519 rlineto
            247 -98 vlineto
            -36 -24 -24 -12 -58 -8 rrcurveto
            -76 90 -270 52 vlineto
            return
          </CharString>
          <CharString index="108">
            87 -12 148 514 -20 return
          </CharString>
          <CharString index="109">
            -82 callgsubr
            endchar
          </CharString>
          <CharString index="110">
            264 -12 rmoveto
            55 37 10 8 26 hvcurveto
            return
          </CharString>
          <CharString index="111">
            hstemhm
            72 172 return
          </CharString>
          <CharString index="112">
            -21 650 -20 return
          </CharString>
          <CharString index="113">
            134 hstem
            return
          </CharString>
          <CharString index="114">
            rmoveto
            1 callgsubr
          </CharString>
          <CharString index="115">
            -74 callgsubr
            endchar
          </CharString>
          <CharString index="116">
            -45 -12 118 422 118 hstemhm
            return
          </CharString>
          <CharString index="117">
            47 callgsubr
            252 176 vstem
            return
          </CharString>
          <CharString index="118">
            572 rmoveto
            return
          </CharString>
          <CharString index="119">
            63 -49 rmoveto
            -22 -14 -19 -19 -20 14 -17 22 21 14 17 20 19 -14 19 -21 hvcurveto
            endchar
          </CharString>
          <CharString index="120">
            -28 -18 -20 -8 -26 hhcurveto
            return
          </CharString>
          <CharString index="121">
            rlineto
            -42 callgsubr
            return
          </CharString>
          <CharString index="122">
            -12 138 return
          </CharString>
          <CharString index="123">
            -25 -41 callgsubr
            144 -20 30 callgsubr
            return
          </CharString>
          <CharString index="124">
            118 -100 -20 54 118 hstemhm
            return
          </CharString>
          <CharString index="125">
            -222 146 -110 182 return
          </CharString>
          <CharString index="126">
            164 hintmask 0000000000000000
            return
          </CharString>
          <CharString index="127">
            -22 -14 -18 -19 return
          </CharString>
          <CharString index="128">
            -23 callsubr
            98 -20 10 callsubr
            return
          </CharString>
          <CharString index="129">
            -22 -14 -19 -19 -20 14 -17 22 22 13 17 20 19 -13 19 -22 hvcurveto
            endchar
          </CharString>
          <CharString index="130">
            -65 callsubr
            endchar
          </CharString>
          <CharString index="131">
            140 -119 -21 33 -21 372 140 184 -9 callsubr
            return
          </CharString>
          <CharString index="132">
            182 hmoveto
            208 hlineto
            192 650 rlineto
            -176 hlineto
            -66 -284 rlineto
            return
          </CharString>
          <CharString index="133">
            -43 -188 134 -103 -21 678 -20 return
          </CharString>
          <CharString index="134">
            56 40 36 50 50 -40 36 -56 -56 -40 -36 -50 -50 40 -36 56 hvcurveto
            return
          </CharString>
          <CharString index="135">
            -38 callgsubr
            47 callgsubr
            return
          </CharString>
          <CharString index="136">
            -5 -155 -21 164 140 -119 -21 384 140 return
          </CharString>
          <CharString index="137">
            -133 -12 126 272 126 return
          </CharString>
          <CharString index="138">
            104 24 -20 80 -20 hstemhm
            return
          </CharString>
          <CharString index="139">
            -45 150 120 120 120 hstem
            34 472 vstem
            return
          </CharString>
          <CharString index="140">
            -307 -229 -21 1000 -20 hstem
            84 110 vstem
            84 return
          </CharString>
          <CharString index="141">
            -150 -124 -218 -222 return
          </CharString>
          <CharString index="142">
            160 68 160 return
          </CharString>
          <CharString index="143">
            156 -50 172 -50 156 hintmask 00000000
            hintmask 11110100
            return
          </CharString>
          <CharString index="144">
            40 callgsubr
            164 96 vstem
            160 return
          </CharString>
          <CharString index="145">
            rmoveto
            128 144 -108 60 -104 -164 rlineto
            return
          </CharString>
          <CharString index="146">
            110 192 110 return
          </CharString>
          <CharString index="147">
            134 232 134 return
          </CharString>
          <CharString index="148">
            118 -62 118 hstemhm
            return
          </CharString>
          <CharString index="149">
            hstemhm
            34 472 -174 174 hintmask 11000000
            34 return
          </CharString>
          <CharString index="150">
            -12 28 callsubr
            return
          </CharString>
          <CharString index="151">
            208 -502 rmoveto
            -58 230 -158 hlineto
            return
          </CharString>
          <CharString index="152">
            156 72 156 return
          </CharString>
          <CharString index="153">
            rmoveto
            58 42 46 58 return
          </CharString>
          <CharString index="154">
            112 134 return
          </CharString>
          <CharString index="155">
            vstem
            -39 768 rmoveto
            25 24 -62 66 rlineto
            return
          </CharString>
          <CharString index="156">
            221 -54 129 127 214 vvcurveto
            return
          </CharString>
          <CharString index="157">
            hlineto
            136 124 69 159 164 return
          </CharString>
          <CharString index="158">
            rlineto
            -140 hlineto
            endchar
          </CharString>
        <CharString name=".notdef">
          119 0 104 452 104 hstem
          76 112 328 112 vstem
          76 hmoveto
          552 660 -552 hlineto
          274 -236 rmoveto
          -40 96 -18 36 rlineto
          120 hlineto
          -18 -36 -40 -96 rlineto
          -166 -252 rmoveto
          336 vlineto
          82 -168 rlineto
          246 -168 rmoveto
          -82 168 82 168 rlineto
          -228 -404 rmoveto
          26 56 36 96 rlineto
          4 hlineto
          36 -96 26 -56 rlineto
          endchar
        </CharString>
        <CharString name="A">
          -63 callgsubr
          hstem
          -10 604 vstem
          412 hmoveto
          -107 callsubr
        </CharString>
        <CharString name="AE">
          269 0 144 -12 133 -5 144 102 144 -128 128 hstemhm
          380 172 hintmask 10110100
          552 144 rmoveto
          116 202 144 -202 102 238 144 -516 vlineto
          -296 -650 rlineto
          180 hlineto
          hintmask 01010100
          57 132 rlineto
          165 hlineto
          hintmask 10110100
          -132 420 144 vlineto
          hintmask 01001100
          -528 121 rmoveto
          36 83 22 52 22 60 24 62 rlinecurve
          4 -257 hlineto
          endchar
        </CharString>
        <CharString name="Aacute">
          -63 callgsubr
          110 -20 hstem
          -10 604 vstem
          476 794 rmoveto
          -90 110 -182 -144 76 -86 rlineto
          132 -674 rmoveto
          -107 callsubr
        </CharString>
        <CharString name="Abreve">
          -63 callgsubr
          44 98 hstem
          -10 604 vstem
          288 694 rmoveto
          -71 callgsubr
          124 -694 rmoveto
          -107 callsubr
        </CharString>
        <CharString name="Acircumflex">
          -63 callgsubr
          110 74 hstem
          -10 604 vstem
          286 760 rmoveto
          4 hlineto
          102 -80 74 44 -84 110 rlineto
          -188 hlineto
          -84 -110 74 -44 rlineto
          228 -680 rmoveto
          -107 callsubr
        </CharString>
        <CharString name="Adieresis">
          -63 callgsubr
          44 156 hstem
          96 45 callsubr
          vstem
          174 -96 callsubr
          10 -694 rmoveto
          -107 callsubr
        </CharString>
        <CharString name="Agrave">
          -63 callgsubr
          110 -20 hstem
          -10 604 vstem
          372 760 rmoveto
          -182 144 -90 -110 196 -120 rlineto
          116 -674 rmoveto
          -107 callsubr
        </CharString>
        <CharString name="Amacron">
          -63 callgsubr
          66 108 hstemhm
          130 316 hintmask 00000000
          hintmask 11111000
          446 824 rmoveto
          -316 -108 316 hlineto
          -34 -716 rmoveto
          -107 callsubr
        </CharString>
        <CharString name="Aring">
          -63 callgsubr
          46 62 80 62 hstem
          168 82 76 82 vstem
          288 696 rmoveto
          28 callgsubr
          142 vmoveto
          21 17 -16 -24 -24 -17 -16 -21 -21 -17 16 24 24 17 16 21 hvcurveto
          124 -838 rmoveto
          -107 callsubr
        </CharString>
        <CharString name="Atilde">
          -63 callgsubr
          36 17 callsubr
          -10 604 -512 39 callsubr
          hintmask 0000000000000000
          hintmask 1110110100000000
          224 738 rmoveto
          hintmask 1111000010000000
          28 36 -52 70 hhcurveto
          -36 callsubr
          hintmask 1110110100000000
          -55 callsubr
          hintmask 1110101000000000
          188 -738 rmoveto
          -107 callsubr
        </CharString>
        <CharString name="B">
          27 0 32 callgsubr
          140 168 -138 168 hintmask 11110100
          16 callgsubr
          hintmask 11111000
          -29 callgsubr
          hintmask 11110100
          43 callgsubr
          endchar
        </CharString>
        <CharString name="Bethb">
          -45 endchar
        </CharString>
        <CharString name="C">
          1 43 callsubr
          vstem
          354 -12 -85 callgsubr
        </CharString>
        <CharString name="Ccaron">
          1 -49 callgsubr
          38 74 47 callgsubr
          vstem
          254 -66 callsubr
          184 -822 -85 callgsubr
        </CharString>
        <CharString name="Ccedilla">
          1 43 callsubr
          vstem
          354 -12 -85 callgsubr
        </CharString>
        <CharString name="D">
          57 0 138 374 138 hstem
          72 172 178 176 vstem
          -69 callgsubr
          endchar
        </CharString>
        <CharString name="E">
          -29 0 -57 callsubr
          35 callgsubr
          72 hmoveto
          -88 callgsubr
          endchar
        </CharString>
        <CharString name="Eacute">
          -29 0 -57 callsubr
          110 -20 35 callgsubr
          282 -67 callgsubr
          -134 -760 rmoveto
          -88 callgsubr
          endchar
        </CharString>
        <CharString name="Ebreve">
          -29 0 -57 callsubr
          44 98 35 callgsubr
          290 694 rmoveto
          -71 callgsubr
          -218 -694 rmoveto
          -88 callgsubr
          endchar
        </CharString>
        <CharString name="Ecircumflex">
          -29 0 -57 callsubr
          110 74 35 callgsubr
          186 -71 callsubr
          -40 -724 rmoveto
          -88 callgsubr
          endchar
        </CharString>
        <CharString name="Edieresis">
          -29 0 -57 callsubr
          44 156 4 callsubr
          -146 45 callsubr
          hintmask 00000000
          hintmask 11110110
          176 -96 callsubr
          hintmask 11101000
          -332 -694 rmoveto
          -88 callgsubr
          endchar
        </CharString>
        <CharString name="Egrave">
          -29 0 -57 callsubr
          110 -20 35 callgsubr
          298 -34 callgsubr
          -30 -794 rmoveto
          -88 callgsubr
          endchar
        </CharString>
        <CharString name="Emacron">
          -29 0 -57 callsubr
          66 108 4 callsubr
          -112 316 hintmask 00000000
          hintmask 11110100
          132 -16 callgsubr
          hintmask 11111000
          -60 -824 rmoveto
          -88 callgsubr
          endchar
        </CharString>
        <CharString name="Eogonek">
          -29 -228 110 118 -57 callsubr
          hstem
          72 172 44 124 vstem
          410 -228 rmoveto
          38 48 16 22 28 hvcurveto
          -38 86 rlineto
          -6 -9 -13 -8 -12 hhcurveto
          -20 -20 10 24 41 38 43 46 hvcurveto
          6 144 -258 116 212 144 -212 102 248 144 -420 -650 296 hlineto
          -33 -20 -47 -47 -63 vvcurveto
          -62 54 -36 68 vhcurveto
          endchar
        </CharString>
        <CharString name="Eth">
          83 0 138 156 77 -77 80 138 138 hstemhm
          98 172 178 176 hintmask 10111100
          290 650 rmoveto
          -192 hlineto
          hintmask 11011100
          -276 vlineto
          -74 -6 rlineto
          -74 74 -294 202 vlineto
          188 136 98 230 hvcurveto
          hintmask 10111100
          230 -136 92 -198 vhcurveto
          -10 -512 rmoveto
          -10 156 116 80 -116 138 10 hlineto
          94 74 -32 -152 -152 -74 -38 -94 hvcurveto
          endchar
        </CharString>
        <CharString name="Euro">
          -106 callsubr
        </CharString>
        <CharString name="Euro.001">
          -106 callsubr
        </CharString>
        <CharString name="Euro.heb">
          -45 endchar
        </CharString>
        <CharString name="Euro.heb.001">
          -45 endchar
        </CharString>
        <CharString name="Euro.lat">
          -106 callsubr
        </CharString>
        <CharString name="Euro.lat.001">
          -106 callsubr
        </CharString>
        <CharString name="F">
          -49 21 -21 238 144 124 144 35 callgsubr
          72 15 callgsubr
          238 216 144 -216 124 252 144 -424 hlineto
          endchar
        </CharString>
        <CharString name="G">
          -2 callgsubr
          47 callgsubr
          220 152 vstem
          372 -12 rmoveto
          -94 callgsubr
          18 callsubr
          hvcurveto
          endchar
        </CharString>
        <CharString name="Gcaron">
          -2 callgsubr
          38 74 47 callgsubr
          220 152 vstem
          278 -66 callsubr
          178 -822 rmoveto
          -94 callgsubr
          18 callsubr
          hvcurveto
          endchar
        </CharString>
        <CharString name="Gdotaccent">
          -2 callgsubr
          34 172 hstemhm
          21 callgsubr
          56 192 -28 152 hintmask 00000000
          hintmask 11111100
          372 696 rmoveto
          27 callsubr
          -708 vmoveto
          hintmask 11101010
          -94 callgsubr
          hvcurveto
          hintmask 11111100
          18 callsubr
          vhcurveto
          endchar
        </CharString>
        <CharString name="H">
          97 21 -21 258 150 242 -20 hstem
          72 172 194 -30 callgsubr
          -37 callsubr
          endchar
        </CharString>
        <CharString name="Hbar">
          137 21 -21 258 150 76 77 -77 80 -80 166 hstemhm
          92 172 194 20 callgsubr
          hintmask 11010110
          700 564 rmoveto
          -70 hlineto
          hintmask 11001110
          86 -172 vlineto
          hintmask 11010110
          -86 -194 vlineto
          hintmask 11001110
          86 -172 vlineto
          hintmask 11100110
          -86 vlineto
          -70 -6 rlineto
          hintmask 11001110
          -74 70 -484 172 258 194 -258 172 484 70 vlineto
          -242 -76 rmoveto
          -194 76 194 hlineto
          endchar
        </CharString>
        <CharString name="I">
          -269 -18 callgsubr
          35 callgsubr
          72 hmoveto
          1 callgsubr
        </CharString>
        <CharString name="Iacute">
          -269 -18 callgsubr
          130 -20 35 callgsubr
          150 -67 callgsubr
          -2 -760 7 callsubr
        </CharString>
        <CharString name="Icircumflex">
          -269 -18 callgsubr
          130 74 35 callgsubr
          54 -71 callsubr
          92 -724 7 callsubr
        </CharString>
        <CharString name="Idieresis">
          -269 -18 callgsubr
          64 156 hstemhm
          -34 36 callsubr
          44 -96 callsubr
          hintmask 11101000
          -200 -694 7 callsubr
        </CharString>
        <CharString name="Igrave">
          -269 -18 callgsubr
          130 -20 35 callgsubr
          166 -34 callgsubr
          102 -794 7 callsubr
        </CharString>
        <CharString name="Imacron">
          -269 -18 callgsubr
          86 108 35 callgsubr
          716 vmoveto
          316 108 -316 hlineto
          72 -824 7 callsubr
        </CharString>
        <CharString name="J">
          -65 -12 148 514 -20 hstem
          280 -30 callgsubr
          232 -12 rmoveto
          150 70 108 130 hvcurveto
          424 -172 -410 vlineto
          -82 -26 -22 -46 -28 -32 20 42 -22 vhcurveto
          -116 -87 rlineto
          -83 48 68 -40 106 hhcurveto
          endchar
        </CharString>
        <CharString name="K">
          43 -18 callgsubr
          35 callgsubr
          -67 callsubr
          endchar
        </CharString>
        <CharString name="L">
          -55 0 144 506 -20 35 callgsubr
          72 hmoveto
          418 144 -246 506 -42 callgsubr
          endchar
        </CharString>
        <CharString name="Lslash">
          -47 0 144 506 -20 hstem
          80 -30 callgsubr
          252 144 rmoveto
          133 vlineto
          208 115 -58 102 -150 -84 rlineto
          240 -172 -319 vlineto
          -110 -63 58 -102 52 32 rlineto
          -198 418 144 vlineto
          endchar
        </CharString>
        <CharString name="M">
          191 21 -21 424 226 0 -20 hstemhm
          72 154 322 156 hintmask 10111000
          72 hmoveto
          154 192 hlineto
          hintmask 11011000
          66 -14 101 -8 65 vhcurveto
          4 hlineto
          52 -156 80 -215 rlineto
          92 hlineto
          80 215 54 156 rlineto
          4 hlineto
          -8 -65 -14 -101 -66 vvcurveto
          -192 156 650 -184 vlineto
          -94 -266 -12 -36 -10 -40 -12 -38 rlinecurve
          -4 hlineto
          -12 38 -10 40 -12 36 -98 266 rcurveline
          -184 hlineto
          endchar
        </CharString>
        <CharString name="N">
          87 -18 callgsubr
          hstem
          72 164 200 164 vstem
          72 hmoveto
          -41 callsubr
        </CharString>
        <CharString name="Ntilde">
          87 -18 callgsubr
          56 17 callsubr
          72 164 -106 39 callsubr
          -106 19 callsubr
          hintmask 1110010100000000
          406 -49 callsubr
          -334 -686 rmoveto
          -41 callsubr
        </CharString>
        <CharString name="O">
          107 43 callsubr
          252 176 vstem
          346 -12 rmoveto
          -107 callgsubr
          endchar
        </CharString>
        <CharString name="OE">
          295 0 138 -138 -57 callsubr
          -138 138 hstemhm
          21 callgsubr
          188 172 hintmask 01110110
          374 hmoveto
          452 144 -246 116 200 144 -200 102 236 144 -432 hlineto
          -190 -150 -92 -230 -230 150 -98 180 hvcurveto
          hintmask 10101110
          20 138 rmoveto
          -97 -77 36 154 154 77 30 97 hvcurveto
          14 -374 hlineto
          endchar
        </CharString>
        <CharString name="Oacute">
          21 callsubr
          338 -67 callgsubr
          84 -772 rmoveto
          -107 callgsubr
          endchar
        </CharString>
        <CharString name="Obreve">
          -23 callsubr
          32 98 10 callsubr
          346 694 rmoveto
          -71 callgsubr
          -706 vmoveto
          -107 callgsubr
          endchar
        </CharString>
        <CharString name="Ocircumflex">
          -23 callsubr
          98 74 10 callsubr
          242 -71 callsubr
          178 -736 rmoveto
          -107 callgsubr
          endchar
        </CharString>
        <CharString name="Odieresis">
          -23 callsubr
          32 156 hstemhm
          21 callgsubr
          -66 45 callsubr
          -66 176 hintmask 00000000
          hintmask 11101100
          232 -96 callsubr
          hintmask 11110010
          -114 -706 rmoveto
          -107 callgsubr
          endchar
        </CharString>
        <CharString name="Ograve">
          21 callsubr
          354 -34 callgsubr
          188 -806 rmoveto
          -107 callgsubr
          endchar
        </CharString>
        <CharString name="Omacron">
          -23 callsubr
          54 108 hstemhm
          21 callgsubr
          -32 316 -32 176 hintmask 00000000
          hintmask 11101000
          188 -16 callgsubr
          hintmask 11110100
          158 -836 rmoveto
          -107 callgsubr
          endchar
        </CharString>
        <CharString name="Oslash">
          -23 callsubr
          34 -20 10 callsubr
          676 628 rmoveto
          -88 68 -68 -83 rlineto
          32 -48 -59 17 -67 hhcurveto
          -180 -122 -120 -214 -91 22 -75 39 -56 hvcurveto
          -69 -84 88 -68 62 76 rlineto
          -28 45 54 -14 61 hhcurveto
          180 122 126 214 82 -18 69 -33 53 hvcurveto
          -377 -204 rmoveto
          118 48 68 78 28 24 -9 -17 20 vhcurveto
          -191 -233 rlineto
          -5 22 -2 24 27 vvcurveto
          252 hmoveto
          -118 -48 -74 -78 -22 -20 6 11 -17 vhcurveto
          182 222 rlineto
          2 -14 1 -16 -17 vvcurveto
          endchar
        </CharString>
        <CharString name="Otilde">
          -23 callsubr
          24 17 callsubr
          21 callgsubr
          -80 39 callsubr
          -80 176 hintmask 0000000000000000
          hintmask 1110010100000000
          416 -49 callsubr
          -70 -698 rmoveto
          -107 callgsubr
          endchar
        </CharString>
        <CharString name="P">
          23 21 -21 206 136 172 136 hstem
          72 172 162 168 vstem
          72 15 callgsubr
          206 70 50 callsubr
          -122 52 -142 hvcurveto
          -238 hlineto
          172 -308 rmoveto
          172 58 vlineto
          66 38 -22 -58 -58 -32 -34 -68 hvcurveto
          endchar
        </CharString>
        <CharString name="Q">
          107 -188 136 566 148 10 callsubr
          660 -40 rmoveto
          -7 -20 -26 -5 -28 hhcurveto
          -49 -58 14 42 -30 hvcurveto
          122 40 77 114 170 vvcurveto
          213 -122 121 -180 -180 -122 -120 -214 -181 88 -119 136 -31 vhcurveto
          -108 50 102 -77 146 hhcurveto
          55 43 10 14 26 hvcurveto
          -344 678 rmoveto
          78 48 -68 -118 -128 -48 -72 -78 -78 -48 72 128 118 48 68 78 hvcurveto
          endchar
        </CharString>
        <CharString name="R">
          45 21 -21 218 136 160 136 hstem
          72 172 166 168 vstem
          614 hmoveto
          -141 252 rlineto
          63 34 42 61 93 vvcurveto
          162 -120 48 -140 vhcurveto
          -246 -650 172 218 66 hlineto
          112 -218 rlineto
          -178 514 rmoveto
          62 hlineto
          68 36 -18 -56 -56 -36 -30 -68 hvcurveto
          -62 hlineto
          endchar
        </CharString>
        <CharString name="S">
          -21 -49 callgsubr
          hstem
          56 174 126 176 vstem
          278 -12 -98 callgsubr
          endchar
        </CharString>
        <CharString name="Sacute">
          -21 -49 callgsubr
          98 -20 hstem
          56 174 126 176 vstem
          288 -67 callgsubr
          66 -772 -98 callgsubr
          endchar
        </CharString>
        <CharString name="Scaron">
          -21 -49 callgsubr
          38 74 hstem
          56 174 126 176 vstem
          202 -66 callsubr
          160 -822 -98 callgsubr
          endchar
        </CharString>
        <CharString name="T">
          -21 21 -21 506 144 hstem
          196 -30 callgsubr
          -17 callsubr
          endchar
        </CharString>
        <CharString name="Thorn">
          45 21 -21 112 136 172 136 94 -20 hstem
          72 172 172 168 vstem
          72 15 callgsubr
          112 80 50 callsubr
          -120 52 -140 hvcurveto
          -80 94 -42 callgsubr
          172 -402 rmoveto
          172 72 vlineto
          64 36 -22 -58 -58 -32 -34 -68 hvcurveto
          endchar
        </CharString>
        <CharString name="U">
          87 -12 148 514 49 callgsubr
          338 -12 -97 callsubr
        </CharString>
        <CharString name="Uacute">
          22 callgsubr
          328 -67 callgsubr
          86 -772 -97 callsubr
        </CharString>
        <CharString name="Ucircumflex">
          1 callsubr
          130 74 -5 callgsubr
          232 -71 callsubr
          180 -736 -97 callsubr
        </CharString>
        <CharString name="Udieresis">
          1 callsubr
          64 156 hstemhm
          68 172 -96 45 callsubr
          -90 166 hintmask 11110010
          222 694 rmoveto
          hintmask 11101010
          46 32 34 44 44 -32 34 -46 hvcurveto
          hintmask 11110010
          -46 -32 -34 -44 -44 32 -34 46 hvcurveto
          228 hmoveto
          46 32 34 44 44 -32 34 -46 hvcurveto
          hintmask 11110100
          -46 -32 -34 -44 hvcurveto
          hintmask 11110010
          -44 32 -34 46 vhcurveto
          -112 -706 -97 callsubr
        </CharString>
        <CharString name="Ugrave">
          22 callgsubr
          344 -34 callgsubr
          190 -806 -97 callsubr
        </CharString>
        <CharString name="Umacron">
          1 callsubr
          86 108 -5 callgsubr
          178 -16 callgsubr
          160 -836 -97 callsubr
        </CharString>
        <CharString name="V">
          -13 0 160 -139 5 callsubr
          hstemhm
          -10 592 hintmask 01110000
          25 callsubr
          hintmask 10110000
          12 callgsubr
          endchar
        </CharString>
        <CharString name="W">
          239 0 162 488 -20 hstem
          10 804 vstem
          124 hmoveto
          214 hlineto
          48 258 10 50 7 54 7 48 rlinecurve
          4 hlineto
          6 -48 8 -54 10 -50 50 -258 rcurveline
          218 hlineto
          108 650 rlineto
          -164 hlineto
          -36 -284 -7 -66 -8 -69 -7 -69 rlinecurve
          -4 hlineto
          -12 69 -12 70 -12 65 -62 284 rcurveline
          -144 hlineto
          -62 -284 -36 -204 rlineto
          -4 hlineto
          -7 68 -8 68 -7 68 -36 284 rcurveline
          -176 hlineto
          endchar
        </CharString>
        <CharString name="X">
          3 -18 callgsubr
          hstem
          10 568 vstem
          10 hmoveto
          184 hlineto
          48 116 14 34 14 34 14 40 rlinecurve
          4 hlineto
          16 -40 14 -34 16 -34 52 -116 rcurveline
          192 hlineto
          -176 326 166 324 rlineto
          -184 hlineto
          -38 -106 -12 -30 -14 -36 -14 -42 rlinecurve
          -4 hlineto
          -18 42 -14 36 -14 30 -44 106 rcurveline
          -192 hlineto
          166 -316 rlineto
          endchar
        </CharString>
        <CharString name="Y">
          -41 -18 callgsubr
          hstem
          186 -30 callgsubr
          186 hmoveto
          -33 callsubr
        </CharString>
        <CharString name="Yacute">
          -41 -18 callgsubr
          130 -20 hstem
          186 -30 callgsubr
          264 -67 callgsubr
          -2 -760 rmoveto
          -33 callsubr
        </CharString>
        <CharString name="Ydieresis">
          -41 -18 callgsubr
          64 156 hstemhm
          80 36 callsubr
          158 -96 callsubr
          hintmask 11101000
          -200 -694 rmoveto
          -33 callsubr
        </CharString>
        <CharString name="Z">
          -43 0 144 362 144 hstem
          32 480 vstem
          32 hmoveto
          -61 callgsubr
          endchar
        </CharString>
        <CharString name="ZWJ">
          858 36 hstem
          -150 34 233 34 vstem
          -150 785 rmoveto
          34 73 233 -73 34 109 -301 hlineto
          endchar
        </CharString>
        <CharString name="ZWNJ">
          767 217 hstem
          -104 207 vstem
          -81 767 rmoveto
          81 81 79 -80 24 24 -79 83 79 82 -24 25 -79 -82 -81 84 -23 -27 78 -82 -78 -83 rlineto
          endchar
        </CharString>
        <CharString name="Zcaron">
          -43 0 144 362 144 50 74 hstem
          32 480 vstem
          190 -66 callsubr
          -74 -810 rmoveto
          -61 callgsubr
          endchar
        </CharString>
        <CharString name="a">
          -72 callgsubr
          4 callgsubr
          hintmask 00000000
          hintmask 01011100
          188 -12 -57 callgsubr
          hintmask 00111100
          12 -48 rlineto
          -105 callsubr
          hintmask 01011100
          -9 callgsubr
          hintmask 10011100
          -95 callgsubr
          endchar
        </CharString>
        <CharString name="a.sups">
          -75 callsubr
        </CharString>
        <CharString name="aacute">
          -72 callgsubr
          144 -20 4 callgsubr
          hintmask 00111010
          310 -77 callsubr
          hintmask 01011110
          -38 -668 -100 callsubr
        </CharString>
        <CharString name="abreve">
          -72 callgsubr
          60 106 4 callgsubr
          -114 96 hintmask 00111010
          290 11 callsubr
          hintmask 00111001
          -88 callsubr
          hintmask 00111010
          -22 callgsubr
          hintmask 01011110
          -102 -584 -100 callsubr
        </CharString>
        <CharString name="acircumflex">
          -72 callgsubr
          130 104 4 callgsubr
          hintmask 00111010
          160 -83 callgsubr
          hintmask 01011110
          92 -630 -100 callsubr
        </CharString>
        <CharString name="acute">
          -25 656 -20 hstem
          216 274 vstem
          25 callgsubr
          endchar
        </CharString>
        <CharString name="acutecomb">
          656 -20 hstem
          -64 274 vstem
          20 -77 callsubr
          endchar
        </CharString>
        <CharString name="acutecomb.cap">
          760 -20 hstem
          -84 272 vstem
          -8 -67 callgsubr
          endchar
        </CharString>
        <CharString name="adieresis">
          -72 callgsubr
          50 160 hstemhm
          38 164 -106 160 54 172 -158 160 hintmask 0011101100000000
          176 562 rmoveto
          47 33 35 45 45 -33 35 -47 -47 -33 -35 -45 -45 33 -35 47 hvcurveto
          hintmask 0101110010000000
          228 hmoveto
          47 33 35 45 45 -33 35 -47 -47 -33 -35 -45 -45 33 -35 47 hvcurveto
          -216 -574 -57 callgsubr
          hintmask 0011101010000000
          12 -48 rlineto
          hintmask 0011110100000000
          -105 callsubr
          hintmask 0101110010000000
          -9 callgsubr
          hintmask 1001110100000000
          -95 callgsubr
          endchar
        </CharString>
        <CharString name="ae">
          201 -12 134 76 104 74 136 -130 130 hstemhm
          42 164 398 146 hintmask 11011100
          192 -12 rmoveto
          67 49 17 55 72 hvcurveto
          -45 43 57 -27 70 hhcurveto
          56 72 20 38 54 hvcurveto
          -15 callsubr
          -42 -22 -42 -44 vhcurveto
          40 -32 -48 24 -58 hhcurveto
          -72 -68 -24 -42 -70 hvcurveto
          hintmask 11101100
          60 -112 rlineto
          28 52 38 14 36 hhcurveto
          45 19 -16 -35 4 hvcurveto
          -192 -20 -78 -59 -104 vvcurveto
          hintmask 11011100
          -9 callgsubr
          276 33 callgsubr
          -352 -182 rmoveto
          -30 -16 13 23 29 29 25 75 12 hvcurveto
          2 -19 2 -17 4 -18 6 -18 rlinecurve
          -18 -20 -23 -12 -29 hhcurveto
          endchar
        </CharString>
        <CharString name="agrave">
          -72 callgsubr
          144 -20 4 callgsubr
          hintmask 00111010
          270 -54 callgsubr
          hintmask 01011110
          108 -742 -100 callsubr
        </CharString>
        <CharString name="alphalatin">
          -5 -12 140 -107 -21 372 140 36 callgsubr
          36 176 138 20 callgsubr
          hintmask 10010110
          240 -12 rmoveto
          46 55 28 36 31 hvcurveto
          4 hlineto
          -40 18 38 -24 52 hhcurveto
          32 18 4 8 16 hvcurveto
          4 128 rlineto
          -2 -6 -4 0 -2 hhcurveto
          -12 -8 8 26 hvcurveto
          340 -134 vlineto
          hintmask 01001110
          -14 -50 rlineto
          -4 hlineto
          44 -38 -40 18 -48 hhcurveto
          -102 -106 -98 -164 hvcurveto
          hintmask 10010110
          -32 callsubr
          hintmask 10100110
          -34 callsubr
          hintmask 10010110
          13 callsubr
          endchar
        </CharString>
        <CharString name="amacron">
          -72 callgsubr
          76 108 hstemhm
          38 164 -66 308 -134 20 callgsubr
          hintmask 00111010
          136 -16 callsubr
          hintmask 01011101
          52 -708 -57 callgsubr
          hintmask 00111101
          12 -48 rlineto
          -105 callsubr
          hintmask 01011101
          -9 callgsubr
          hintmask 10011101
          -95 callgsubr
          endchar
        </CharString>
        <CharString name="ampersand">
          -94 callsubr
        </CharString>
        <CharString name="ampersand.lat">
          -94 callsubr
        </CharString>
        <CharString name="approxequal">
          -45 114 120 -48 120 48 120 -48 120 hstemhm
          26 488 hintmask 10101000
          354 354 rmoveto
          -1 callgsubr
          hintmask 10011000
          -25 callsubr
          hintmask 10101000
          54 32 -72 84 hhcurveto
          -240 vmoveto
          -1 callgsubr
          hintmask 01101000
          -25 callsubr
          hintmask 10101000
          54 32 -72 84 hhcurveto
          endchar
        </CharString>
        <CharString name="aring">
          -72 callgsubr
          56 62 88 62 hstemhm
          38 164 -52 102 58 172 -154 102 hintmask 0011110110000000
          290 568 rmoveto
          hintmask 0011110101000000
          94 46 48 58 58 -46 48 -94 -94 -46 -48 -58 hvcurveto
          hintmask 0011110110000000
          -58 46 -48 94 vhcurveto
          hintmask 0011110101000000
          62 vmoveto
          -21 -17 18 26 26 17 18 21 21 17 -18 -26 -26 -17 -18 -21 hvcurveto
          hintmask 0101111010000000
          -102 -642 -57 callgsubr
          hintmask 0011111010000000
          12 -48 rlineto
          -105 callsubr
          hintmask 0101111010000000
          -9 callgsubr
          hintmask 1001111010000000
          -95 callgsubr
          endchar
        </CharString>
        <CharString name="asciicircum">
          -44 callgsubr
        </CharString>
        <CharString name="asciicircum.lat">
          -44 callgsubr
        </CharString>
        <CharString name="asciitilde">
          -45 234 120 -48 120 hstemhm
          26 488 hintmask 10100000
          354 234 rmoveto
          -1 callgsubr
          hintmask 01100000
          -25 callsubr
          hintmask 10100000
          54 32 -72 84 hhcurveto
          endchar
        </CharString>
        <CharString name="asterisk">
          -44 callsubr
        </CharString>
        <CharString name="asterisk.lat">
          -44 callsubr
        </CharString>
        <CharString name="at">
          -96 callgsubr
        </CharString>
        <CharString name="at.lat">
          -96 callgsubr
        </CharString>
        <CharString name="atilde">
          -72 callgsubr
          60 41 callsubr
          38 164 -108 106 110 172 -102 106 hintmask 0000000000000000
          hintmask 0011100001000000
          354 -61 callsubr
          hintmask 0011010110000000
          -65 callgsubr
          hintmask 0011100001000000
          26 38 -56 60 hhcurveto
          hintmask 0101011010000000
          -166 -584 -57 callgsubr
          hintmask 0011011010000000
          12 -48 rlineto
          -105 callsubr
          hintmask 0101011010000000
          -9 callgsubr
          hintmask 1001011010000000
          -95 callgsubr
          endchar
        </CharString>
        <CharString name="b">
          -5 -12 24 callsubr
          138 176 hintmask 00000000
          hintmask 01011110
          -3 callgsubr
          hintmask 00111110
          -696 134 vlineto
          hintmask 01011110
          44 callgsubr
          hintmask 10011110
          -42 140 -37 callgsubr
          endchar
        </CharString>
        <CharString name="backslash">
          -3 callsubr
        </CharString>
        <CharString name="backslash.lat">
          -3 callsubr
        </CharString>
        <CharString name="bar">
          33 callsubr
          -250 rmoveto
          110 1000 -110 hlineto
          endchar
        </CharString>
        <CharString name="braceleft">
          -81 callsubr
        </CharString>
        <CharString name="braceleft.lat">
          -81 callsubr
        </CharString>
        <CharString name="braceright">
          -81 callgsubr
        </CharString>
        <CharString name="braceright.lat">
          -81 callgsubr
        </CharString>
        <CharString name="bracketleft">
          -6 callgsubr
        </CharString>
        <CharString name="bracketleft.lat">
          -6 callgsubr
        </CharString>
        <CharString name="bracketright">
          -14 callsubr
        </CharString>
        <CharString name="bracketright.lat">
          -14 callsubr
        </CharString>
        <CharString name="breve">
          -25 572 106 hstem
          358 96 vstem
          280 11 callsubr
          -88 callsubr
          -22 callgsubr
          endchar
        </CharString>
        <CharString name="brokenbar">
          33 callsubr
          320 rmoveto
          110 430 -110 hlineto
          -1000 vmoveto
          110 450 -110 hlineto
          endchar
        </CharString>
        <CharString name="bullet">
          -20 callsubr
        </CharString>
        <CharString name="bullet.lat">
          -20 callsubr
        </CharString>
        <CharString name="c">
          -113 -41 callgsubr
          hstem
          32 176 vstem
          284 -12 rmoveto
          52 64 14 44 50 hvcurveto
          -68 callsubr
          -166 110 -96 142 hvcurveto
          endchar
        </CharString>
        <CharString name="caron">
          -25 578 31 callsubr
          86 388 hintmask 00000000
          hintmask 10110000
          192 -15 callgsubr
        </CharString>
        <CharString name="ccaron">
          -113 -41 callgsubr
          66 31 callsubr
          32 176 hintmask 00000000
          hintmask 11101100
          192 -8 callsubr
          198 -718 rmoveto
          52 64 14 44 50 hvcurveto
          -68 callsubr
          -166 110 -96 142 hvcurveto
          endchar
        </CharString>
        <CharString name="ccedilla">
          -113 -244 66 192 -21 381 138 hstem
          32 176 52 122 vstem
          304 -60 rmoveto
          22 51 42 6 45 16 37 33 rlinecurve
          -68 callsubr
          -144 82 -91 115 -22 hvcurveto
          -45 -89 rlineto
          62 -8 14 -14 -18 vvcurveto
          -28 -24 -10 -76 -4 vhcurveto
          12 -66 rlineto
          132 4 78 32 72 vvcurveto
          42 -26 22 -52 12 vhcurveto
          endchar
        </CharString>
        <CharString name="cedilla">
          -25 -244 66 118 64 hstem
          260 122 vstem
          172 -25 callgsubr
        </CharString>
        <CharString name="cent">
          -77 callgsubr
        </CharString>
        <CharString name="cent.heb">
          -45 endchar
        </CharString>
        <CharString name="cent.lat">
          -77 callgsubr
        </CharString>
        <CharString name="chi">
          -41 -167 -21 33 -21 676 -20 32 -20 hstemhm
          6 554 hintmask 00000000
          hintmask 10101000
          186 -188 rmoveto
          92 218 rlineto
          4 hlineto
          108 -218 170 36 -196 322 170 330 rlineto
          -178 hlineto
          -74 -184 rlineto
          -4 hlineto
          hintmask 01011000
          -102 196 -170 -36 189 -310 -187 -342 rlineto
          endchar
        </CharString>
        <CharString name="circledotted">
          -11 -13 91 -64 91 -9 91 17 91 18 91 -9 91 -65 91 hstemhm
          32 90 -61 88 -12 90 17 88 16 90 -12 90 -63 90 hintmask 0101001010101000
          287 421 rmoveto
          27 18 18 29 28 -19 16 -26 -23 -20 -16 -28 -29 20 -18 23 hvcurveto
          hintmask 0000010001010000
          -105 -26 rmoveto
          26 19 17 28 30 -21 16 -24 -24 -21 -16 -30 -28 21 -17 24 hvcurveto
          210 -1 rmoveto
          28 18 17 29 29 -21 17 -25 -23 -21 -17 -29 -29 21 -17 23 hvcurveto
          hintmask 0000100010001000
          -288 -81 rmoveto
          27 18 18 29 30 -19 15 -26 -22 -21 -15 -30 -29 21 -18 22 hvcurveto
          368 hmoveto
          26 18 17 29 29 -20 16 -24 -25 -21 -16 -29 -29 21 -17 25 hvcurveto
          hintmask 0001000100000100
          -396 -109 rmoveto
          28 18 17 30 28 -20 16 -26 -23 -21 -16 -28 -30 21 -17 23 hvcurveto
          422 hmoveto
          26 19 17 30 28 -21 16 -24 -25 -20 -16 -28 -30 20 -17 25 hvcurveto
          hintmask 0010000010001000
          -394 -108 rmoveto
          27 18 16 29 29 -19 17 -26 -22 -21 -17 -29 -29 21 -16 22 hvcurveto
          368 hmoveto
          26 18 16 29 29 -20 17 -24 -25 -21 -17 -29 -29 21 -16 25 hvcurveto
          hintmask 0100000001010000
          -290 -82 rmoveto
          26 19 17 30 28 -21 16 -24 -24 -21 -16 -28 -30 21 -17 24 hvcurveto
          210 hmoveto
          28 18 17 30 28 -21 16 -25 -23 -21 -16 -28 -30 21 -17 23 hvcurveto
          hintmask 1000000000100000
          -105 -27 rmoveto
          27 18 17 30 28 -19 16 -26 -23 -20 -16 -28 -30 20 -17 23 hvcurveto
          endchar
        </CharString>
        <CharString name="circumflex">
          -25 642 104 hstem
          86 388 vstem
          150 -83 callgsubr
          endchar
        </CharString>
        <CharString name="colon">
          -265 14 callgsubr
          310 208 0 -20 hstemhm
          60 200 hintmask 00000000
          hintmask 01101000
          160 298 rmoveto
          -91 callsubr
          -310 vmoveto
          58 42 46 58 hvcurveto
          hintmask 10011000
          58 -42 46 -58 -58 -42 -46 -58 vhcurveto
          hintmask 01101000
          -58 42 -46 58 vhcurveto
          endchar
        </CharString>
        <CharString name="comma">
          -265 8 188 hstemhm
          167 111 hintmask 00000000
          hintmask 11000000
          164 196 -21 callsubr
        </CharString>
        <CharString name="copyright">
          -89 callsubr
        </CharString>
        <CharString name="copyright.lat">
          -89 callsubr
        </CharString>
        <CharString name="currency">
          -45 147 99 168 98 hstem
          44 152 148 152 vstem
          102 76 rmoveto
          71 71 rlineto
          31 -13 33 -6 33 32 34 6 31 hflex1
          71 -71 85 85 -61 60 rlineto
          21 30 13 36 43 vvcurveto
          42 -12 36 -21 29 vhcurveto
          60 60 -85 85 -70 -70 rlineto
          -31 13 -34 7 -33 -33 -34 -7 -31 hflex1
          -70 70 -85 -85 59 -60 rlineto
          -20 -29 -12 -36 -42 vvcurveto
          -43 12 -36 21 -30 vhcurveto
          -60 -60 rlineto
          253 85 rmoveto
          -42 -32 32 52 52 32 32 42 42 32 -32 -52 -52 -32 -32 -42 hvcurveto
          endchar
        </CharString>
        <CharString name="d">
          -5 -12 -13 callgsubr
          138 20 callgsubr
          hintmask 10011110
          240 -12 rmoveto
          44 48 24 34 34 hvcurveto
          4 hlineto
          hintmask 01011110
          12 -46 rlineto
          140 696 -172 -162 hlineto
          6 -72 rlineto
          30 -30 -32 20 -54 hhcurveto
          -102 -102 -98 -164 hvcurveto
          hintmask 10011110
          -32 callsubr
          hintmask 10101110
          -34 callsubr
          hintmask 10011110
          13 callsubr
          endchar
        </CharString>
        <CharString name="dagger">
          -53 413 126 hstem
          203 126 vstem
          198 -80 rmoveto
          136 hlineto
          -10 498 168 -10 -64 callsubr
          10 rlineto
          endchar
        </CharString>
        <CharString name="dagger.lat">
          -53 413 126 hstem
          203 126 vstem
          198 -80 rmoveto
          136 hlineto
          -10 498 168 -10 -64 callsubr
          10 rlineto
          endchar
        </CharString>
        <CharString name="daggerdbl">
          -70 callgsubr
        </CharString>
        <CharString name="daggerdbl.lat">
          -70 callgsubr
        </CharString>
        <CharString name="degree">
          -51 callgsubr
        </CharString>
        <CharString name="degree.lat">
          -51 callgsubr
        </CharString>
        <CharString name="dieresis">
          -25 562 160 hstem
          86 35 callsubr
          vstem
          166 -98 callsubr
          endchar
        </CharString>
        <CharString name="divide">
          -45 64 172 34 120 34 172 hstem
          178 184 vstem
          270 424 24 callgsubr
          -236 -154 rmoveto
          -10 callsubr
          236 -326 24 callgsubr
          endchar
        </CharString>
        <CharString name="dollar">
          -89 callgsubr
        </CharString>
        <CharString name="dollar.heb">
          -45 endchar
        </CharString>
        <CharString name="dollar.lat">
          -89 callgsubr
        </CharString>
        <CharString name="dotaccent">
          -25 562 172 hstem
          188 184 vstem
          280 -47 callsubr
          endchar
        </CharString>
        <CharString name="dotbelowcomb">
          -31 callsubr
          hstem
          -92 184 vstem
          -234 vmoveto
          -105 callgsubr
          endchar
        </CharString>
        <CharString name="dotlessi">
          -10 callgsubr
          hstem
          58 -30 callgsubr
          58 15 callgsubr
          500 -42 callgsubr
          endchar
        </CharString>
        <CharString name="dotlessj">
          -295 -188 134 554 -20 hstem
          66 -30 callgsubr
          44 -188 rmoveto
          150 44 102 112 hvcurveto
          2 474 14 callsubr
          -2 -480 rlineto
          -47 callgsubr
          endchar
        </CharString>
        <CharString name="e">
          -59 -12 -46 callsubr
          hstem
          344 146 vstem
          490 270 -106 callgsubr
          endchar
        </CharString>
        <CharString name="e.sups">
          -69 callsubr
        </CharString>
        <CharString name="eacute">
          -59 -12 -46 callsubr
          144 -20 hstem
          344 146 vstem
          490 730 rmoveto
          -116 114 -158 -188 84 -84 rlineto
          -28 -60 rmoveto
          -122 -118 -100 -162 -166 112 -96 146 56 72 20 38 54 hvcurveto
          -56 102 rlineto
          -20 -36 -32 -10 -34 hhcurveto
          -49 -52 17 63 -18 hvcurveto
          288 hlineto
          3 12 4 30 30 vvcurveto
          -28 callgsubr
          vhcurveto
          -77 -202 rmoveto
          53 14 33 19 34 hhcurveto
          52 16 -34 -38 hvcurveto
          endchar
        </CharString>
        <CharString name="ebreve">
          -59 -12 -46 callsubr
          60 106 hstemhm
          344 146 -132 96 hintmask 11111000
          280 11 callsubr
          hintmask 11110100
          -88 callsubr
          hintmask 11111000
          -22 callgsubr
          210 -302 -106 callgsubr
          endchar
        </CharString>
        <CharString name="ecircumflex">
          -59 -12 -46 callsubr
          130 104 hstem
          344 146 vstem
          278 642 rmoveto
          4 hlineto
          128 -84 64 60 -106 128 rlineto
          -176 hlineto
          -106 -128 64 -60 rlineto
          340 -288 -106 callgsubr
          endchar
        </CharString>
        <CharString name="edieresis">
          -59 -12 -46 callsubr
          50 160 hstemhm
          86 35 callsubr
          -130 146 hintmask 11111100
          166 -98 callsubr
          hintmask 11111010
          96 -292 -106 callgsubr
          endchar
        </CharString>
        <CharString name="egrave">
          -59 -12 -46 callsubr
          144 -20 hstem
          344 146 vstem
          344 656 rmoveto
          -158 188 -116 -114 190 -158 rlineto
          230 -302 -106 callgsubr
          endchar
        </CharString>
        <CharString name="eight">
          9 callsubr
          42 -40 callsubr
          268 -103 callgsubr
        </CharString>
        <CharString name="eight.heb">
          9 callsubr
          42 -40 callsubr
          268 -103 callgsubr
        </CharString>
        <CharString name="eight.lat">
          9 callsubr
          42 -40 callsubr
          268 -103 callgsubr
        </CharString>
        <CharString name="eight.pnumheb">
          -45 endchar
        </CharString>
        <CharString name="eight.pnumlat">
          9 callsubr
          50 -40 callsubr
          276 -103 callgsubr
        </CharString>
        <CharString name="ellipsis">
          409 -12 208 hstemhm
          66 200 134 200 134 200 hintmask 00000000
          hintmask 11110000
          166 -12 rmoveto
          -91 callsubr
          334 hmoveto
          -91 callsubr
          334 hmoveto
          -91 callsubr
          endchar
        </CharString>
        <CharString name="emacron">
          -59 -12 -46 callsubr
          76 108 hstemhm
          126 308 -90 146 hintmask 00000000
          hintmask 11111000
          434 696 rmoveto
          -308 -108 308 hlineto
          hintmask 11110100
          56 -318 -106 callgsubr
          endchar
        </CharString>
        <CharString name="emdash">
          7 callgsubr
        </CharString>
        <CharString name="emdash.lat">
          7 callgsubr
        </CharString>
        <CharString name="endash">
          9 callgsubr
        </CharString>
        <CharString name="endash.lat">
          9 callgsubr
        </CharString>
        <CharString name="eogonek">
          -59 -212 100 -43 -21 164 -46 callsubr
          hstemhm
          254 112 -22 146 hintmask 00000000
          hintmask 10111100
          364 -212 rmoveto
          hintmask 01111100
          34 48 14 22 28 hvcurveto
          hintmask 10111100
          -34 76 rlineto
          -6 -9 -12 -6 -12 hhcurveto
          -23 -18 11 23 38 18 26 88 60 hvcurveto
          -56 102 rlineto
          -20 -36 -32 -10 -34 hhcurveto
          -56 -44 20 60 -16 hvcurveto
          hintmask 01111010
          285 hlineto
          3 12 4 30 30 vvcurveto
          -28 callgsubr
          -122 -118 -100 -162 vhcurveto
          hintmask 10111100
          -166 112 -96 146 4 4 0 2 10 vhcurveto
          -24 -22 -30 -38 -48 vvcurveto
          -62 48 -32 62 vhcurveto
          hintmask 01111010
          -168 522 rmoveto
          50 10 32 22 38 hhcurveto
          52 16 -34 -38 hvcurveto
          endchar
        </CharString>
        <CharString name="eogonek.sups">
          -69 callsubr
        </CharString>
        <CharString name="equal">
          32 callsubr
          34 390 rmoveto
          -10 callsubr
          -360 vmoveto
          -10 callsubr
          endchar
        </CharString>
        <CharString name="estimated">
          215 -11 20 307 19 306 20 hstem
          46 130 450 129 vstem
          401 -11 rmoveto
          114 102 52 79 65 hvcurveto
          -52 hlineto
          -68 -55 -82 -43 -91 hhcurveto
          -86 -78 38 61 -54 hvcurveto
          -4 6 -4 7 8 vvcurveto
          183 vlineto
          3 2 1 2 vhcurveto
          575 9 hlineto
          186 -158 150 -196 -196 -159 -150 -186 -186 159 -150 196 vhcurveto
          -221 346 rmoveto
          -2 -2 2 3 hvcurveto
          180 vlineto
          9 4 8 5 6 vhcurveto
          60 55 76 38 86 hhcurveto
          83 76 -37 -58 56 hvcurveto
          5 -6 4 -7 -9 vvcurveto
          -184 vlineto
          -3 -2 -2 -3 vhcurveto
          endchar
        </CharString>
        <CharString name="eth">
          -19 15 callsubr
          206 126 182 -20 38 -20 23 -20 hstemhm
          38 156 166 160 hintmask 00000000
          hintmask 11010110
          386 600 rmoveto
          116 58 rlineto
          hintmask 11001110
          -44 75 -143 -72 -44 32 -47 27 -47 24 rlinecurve
          hintmask 11100110
          -74 -104 29 -15 27 -15 24 -15 rlinecurve
          -111 -56 44 -74 142 71 33 -32 24 -35 17 -42 rlinecurve
          23 -25 -35 8 -32 hhcurveto
          -100 -102 -82 -146 -148 108 -94 128 154 92 120 162 hvcurveto
          hintmask 11010110
          145 -55 105 -79 80 vhcurveto
          hintmask 11001110
          -106 -474 rmoveto
          -46 -40 34 70 75 37 27 46 30 28 -9 -24 24 hvcurveto
          1 -12 0 -13 -14 vvcurveto
          -98 -36 -36 -44 vhcurveto
          endchar
        </CharString>
        <CharString name="exclam">
          -62 callgsubr
        </CharString>
        <CharString name="exclam.lat">
          -62 callgsubr
        </CharString>
        <CharString name="exclamdown">
          -225 304 208 0 -20 hstemhm
          80 200 -183 166 hintmask 00000000
          hintmask 10100000
          180 304 rmoveto
          -91 callsubr
          hintmask 01010000
          -86 -474 rmoveto
          172 hlineto
          -6 148 -24 278 rlineto
          -112 hlineto
          -24 -278 rlineto
          endchar
        </CharString>
        <CharString name="exclamdown.lat">
          -225 endchar
        </CharString>
        <CharString name="f">
          -225 21 -1 callsubr
          74 134 0 -20 hstemhm
          88 172 hintmask 10110100
          312 574 rmoveto
          16 18 -4 -6 16 hvcurveto
          hintmask 10101100
          30 126 rlineto
          hintmask 11010100
          8 -22 -38 10 -46 hhcurveto
          -148 -50 -95 -107 hvcurveto
          -7 vlineto
          -66 -5 rlineto
          hintmask 10110100
          -20 callgsubr
          vhcurveto
          endchar
        </CharString>
        <CharString name="fi">
          63 21 -1 callsubr
          62 172 -160 134 0 -20 hstemhm
          88 172 152 184 -178 172 hintmask 0000000000000000
          hintmask 1011001100000000
          504 -47 callsubr
          hintmask 1100101010000000
          -416 -56 rmoveto
          -7 vlineto
          -66 -5 rlineto
          hintmask 1010101010000000
          -20 callgsubr
          16 18 -4 -6 16 vhcurveto
          hintmask 1010011010000000
          30 126 rlineto
          hintmask 1010101010000000
          8 -22 -38 10 -46 hhcurveto
          hintmask 1100101010000000
          -148 -50 -95 -107 hvcurveto
          hintmask 1010101010000000
          330 -506 -32 callgsubr
        </CharString>
        <CharString name="five">
          -101 callsubr
        </CharString>
        <CharString name="five.heb">
          -101 callsubr
        </CharString>
        <CharString name="five.lat">
          -101 callsubr
        </CharString>
        <CharString name="five.pnumheb">
          -45 endchar
        </CharString>
        <CharString name="five.pnumlat">
          -101 callsubr
        </CharString>
        <CharString name="fl">
          73 15 callsubr
          -105 -1 callsubr
          74 134 36 callgsubr
          88 172 158 172 hintmask 0000000000000000
          hintmask 0110100110000000
          88 506 rmoveto
          -7 vlineto
          -66 -5 rlineto
          hintmask 0101100110000000
          -20 callgsubr
          16 18 -4 -6 16 vhcurveto
          hintmask 0101001110000000
          30 126 rlineto
          hintmask 0101100110000000
          8 -22 -38 10 -46 hhcurveto
          hintmask 0110100110000000
          -148 -50 -95 -107 hvcurveto
          hintmask 1001010110000000
          548 -378 rmoveto
          -2 -8 -4 0 -6 hhcurveto
          -12 -16 10 34 hvcurveto
          526 -172 -520 vlineto
          -112 38 -76 116 38 28 6 8 18 vhcurveto
          endchar
        </CharString>
        <CharString name="florin">
          -86 callsubr
        </CharString>
        <CharString name="florin.heb">
          -45 endchar
        </CharString>
        <CharString name="florin.lat">
          -86 callsubr
        </CharString>
        <CharString name="four">
          -13 callsubr
          290 160 vstem
          518 -91 callgsubr
        </CharString>
        <CharString name="four.heb">
          -13 callsubr
          290 160 vstem
          518 -91 callgsubr
        </CharString>
        <CharString name="four.lat">
          -13 callsubr
          290 160 vstem
          518 -91 callgsubr
        </CharString>
        <CharString name="four.pnumheb">
          -45 endchar
        </CharString>
        <CharString name="four.pnumlat">
          -13 callsubr
          308 160 vstem
          536 -91 callgsubr
        </CharString>
        <CharString name="fraction">
          -79 callsubr
        </CharString>
        <CharString name="fraction.lat">
          -79 callsubr
        </CharString>
        <CharString name="g">
          -31 callgsubr
          -12 callgsubr
          122 42 callgsubr
          240 -206 -24 callgsubr
          hintmask 1111000110000000
          -80 callsubr
          hintmask 1110101010000000
          -48 callsubr
          hintmask 1111000110000000
          -23 callgsubr
          hintmask 1111010010000000
          -46 -24 -24 -31 -41 vvcurveto
          hintmask 1111010001000000
          -90 96 -34 114 vhcurveto
          hintmask 1110101010000000
          -52 callgsubr
          hintmask 1111010001000000
          -73 callgsubr
        </CharString>
        <CharString name="gammalatin">
          -41 -206 106 600 -20 hstem
          106 138 64 138 vstem
          532 500 rmoveto
          -164 hlineto
          -54 -188 -12 -42 -12 -29 -12 -46 rlinecurve
          -4 hlineto
          -12 46 -12 29 -12 42 -54 188 rcurveline
          -42 callgsubr
          152 -399 rlineto
          -37 -62 -21 -38 -51 vvcurveto
          -94 68 -62 102 102 68 62 94 52 -21 38 -38 64 vhcurveto
          -111 -204 rmoveto
          -18 -14 14 24 25 8 25 20 42 hvcurveto
          5 hlineto
          23 -42 8 -25 -25 vvcurveto
          -24 -14 -14 -18 vhcurveto
          endchar
        </CharString>
        <CharString name="gcaron">
          -31 callgsubr
          66 104 24 -20 80 -20 -12 callgsubr
          122 148 -92 19 callsubr
          hintmask 1111010101010000
          192 578 rmoveto
          176 hlineto
          hintmask 1111001101010000
          106 128 -64 60 rlineto
          hintmask 1111010101010000
          -29 callsubr
          hintmask 1111001110001000
          -64 -60 rlineto
          154 -912 -24 callgsubr
          hintmask 1111001100110000
          -80 callsubr
          hintmask 1110101101010000
          -48 callsubr
          hintmask 1111001100110000
          -23 callgsubr
          hintmask 1111001110010000
          -46 -24 -24 -31 -41 vvcurveto
          hintmask 1111001110001000
          -90 96 -34 114 vhcurveto
          hintmask 1110101101010000
          -52 callgsubr
          hintmask 1111001110001000
          -73 callgsubr
        </CharString>
        <CharString name="gdotaccent">
          -31 callgsubr
          50 172 -12 callgsubr
          0 184 -62 42 callgsubr
          280 -47 callsubr
          hintmask 1111011000010000
          -40 -768 -95 callsubr
        </CharString>
        <CharString name="germandbls">
          69 -12 126 -114 32 -11 -21 572 134 hstemhm
          58 170 76 156 -92 164 -60 156 hintmask 00000000
          hintmask 10011001
          434 -12 rmoveto
          130 64 76 94 hvcurveto
          hintmask 00111100
          150 -168 4 54 vvcurveto
          hintmask 00111010
          44 72 28 94 vvcurveto
          88 -72 86 -148 -175 -79 -100 -130 vhcurveto
          -476 170 458 vlineto
          68 27 46 57 36 20 -26 -34 vhcurveto
          hintmask 00111100
          -70 -64 -26 -72 vvcurveto
          hintmask 10011001
          -128 168 -6 -60 vvcurveto
          -22 -18 -14 -26 -28 -30 10 24 -32 vhcurveto
          hintmask 01011000
          -58 -116 rlineto
          hintmask 10011001
          -28 50 44 -16 60 hhcurveto
          endchar
        </CharString>
        <CharString name="glottalstopreversedsupmod">
          -227 740 95 hstemhm
          31 119 -19 119 hintmask 10100000
          131 368 rmoveto
          119 207 hlineto
          hintmask 11000000
          -76 50 -24 28 37 vvcurveto
          34 24 16 34 26 25 -16 -23 19 vhcurveto
          58 74 rlineto
          35 -32 -46 25 -64 hhcurveto
          -87 -76 -46 -94 hvcurveto
          hintmask 10100000
          -71 41 -43 59 -48 vhcurveto
          endchar
        </CharString>
        <CharString name="grave">
          -25 656 -20 hstem
          70 274 vstem
          260 -54 callgsubr
          endchar
        </CharString>
        <CharString name="gravecomb">
          656 -20 hstem
          -210 274 vstem
          -20 -54 callgsubr
          endchar
        </CharString>
        <CharString name="gravecomb.cap">
          760 -20 hstem
          -188 272 vstem
          8 -34 callgsubr
          endchar
        </CharString>
        <CharString name="greater">
          -45 94 476 42 callsubr
          94 rmoveto
          hintmask 10100000
          472 180 rlineto
          116 vlineto
          -472 180 rlineto
          -140 vlineto
          162 -50 136 -46 rlineto
          -4 vlineto
          -136 -46 -162 -50 rlineto
          endchar
        </CharString>
        <CharString name="greaterequal">
          -45 0 120 42 callsubr
          154 rmoveto
          hintmask 10100000
          472 138 rlineto
          140 vlineto
          -472 138 rlineto
          -140 vlineto
          158 -36 140 -30 rlineto
          -4 vlineto
          -140 -30 -158 -36 rlineto
          -294 vmoveto
          -10 callsubr
          endchar
        </CharString>
        <CharString name="guillemotleft">
          -53 callsubr
        </CharString>
        <CharString name="guillemotleft.lat">
          -53 callsubr
        </CharString>
        <CharString name="guillemotright">
          -58 callsubr
        </CharString>
        <CharString name="guillemotright.lat">
          -58 callsubr
        </CharString>
        <CharString name="guilsinglleft">
          -285 52 400 hstem
          50 196 vstem
          184 52 8 callsubr
        </CharString>
        <CharString name="guilsinglleft.lat">
          -285 52 400 hstem
          50 196 vstem
          184 52 8 callsubr
        </CharString>
        <CharString name="guilsinglright">
          -285 52 400 hstem
          54 196 vstem
          116 52 2 callsubr
        </CharString>
        <CharString name="guilsinglright.lat">
          -285 52 400 hstem
          54 196 vstem
          116 52 2 callsubr
        </CharString>
        <CharString name="h">
          -3 21 -24 callsubr
          126 172 hintmask 10111100
          58 5 callgsubr
          hintmask 11011100
          -84 callsubr
          endchar
        </CharString>
        <CharString name="hbar">
          -3 21 -21 314 146 90 76.5 -76.5 80 -80 146 0 callgsubr
          126 172 hintmask 11001110
          372 460 rmoveto
          -68 -48 -34 -30 -34 hvcurveto
          8 86 rlineto
          68 164 vlineto
          hintmask 11010110
          80 -164 vlineto
          hintmask 11001110
          66 -172 vlineto
          hintmask 11100110
          -67 vlineto
          -66 -5 rlineto
          hintmask 11001110
          -74 66 -550 172 276 vlineto
          24 26 18 14 32 hhcurveto
          34 16 -16 -64 hvcurveto
          -31 callsubr
          256 vlineto
          124 -46 80 -110 vhcurveto
          endchar
        </CharString>
        <CharString name="hungarumlaut">
          -25 564 224 hstem
          138 392 vstem
          228 564 -11 callgsubr
          280 -40 -11 callgsubr
          endchar
        </CharString>
        <CharString name="hyphen">
          -59 callsubr
        </CharString>
        <CharString name="i">
          -10 callgsubr
          82 172 hstemhm
          52 184 -178 20 callgsubr
          hintmask 11110000
          144 -47 callsubr
          hintmask 11101000
          -86 -562 -32 callgsubr
        </CharString>
        <CharString name="iacute">
          -10 callgsubr
          176 -20 hstem
          58 -30 callgsubr
          164 -77 callsubr
          -22 -656 -32 callgsubr
        </CharString>
        <CharString name="icircumflex">
          -10 callgsubr
          162 104 hstem
          58 -30 callgsubr
          14 -83 callgsubr
          108 -618 -32 callgsubr
        </CharString>
        <CharString name="idieresis">
          -10 callgsubr
          82 160 hstemhm
          -50 160 -52 172 -52 160 hintmask 00000000
          hintmask 11110100
          30 -98 callsubr
          hintmask 11101000
          -200 -562 -32 callgsubr
        </CharString>
        <CharString name="igrave">
          -10 callgsubr
          176 -20 hstem
          58 -30 callgsubr
          124 -54 callgsubr
          124 -730 -32 callgsubr
        </CharString>
        <CharString name="imacron">
          -10 callgsubr
          108 108 hstem
          58 -30 callgsubr
          -10 -16 callsubr
          68 -696 -32 callgsubr
        </CharString>
        <CharString name="infinity">
          241 100 158 -130 124 124 158 -108 124 hstemhm
          36 124 506 124 hintmask 00000000
          hintmask 10011100
          583 100 rmoveto
          112 95 85 157 120 -88 88 -109 -78 -60 -36 -68 -53 hvcurveto
          -4 hlineto
          hintmask 01101100
          50 -36 -51 38 -75 hhcurveto
          -120 -80 -80 -140 -97 76 -89 101 71 54 40 48 36 hvcurveto
          4 hlineto
          hintmask 10011100
          -84 63 59 -32 83 hhcurveto
          -1 158 rmoveto
          -54 -35 47 49 -35 hvcurveto
          50 36 42 22 40 hhcurveto
          54 36 -32 -56 -42 -32 -38 -52 hvcurveto
          hintmask 01101100
          -354 -6 rmoveto
          -45 -23 34 32 32 18 26 44 36 36 -29 -39 24 hvcurveto
          -35 -24 -30 -21 -36 hhcurveto
          endchar
        </CharString>
        <CharString name="integral">
          -173 -158 128 694 128 hstemhm
          116 154 -118 154 hintmask 11010000
          99 -158 rmoveto
          173 34 109 145 hvcurveto
          hintmask 11100000
          172 -36 118 156 vvcurveto
          90 12 32 50 14 12 -1 -3 10 vhcurveto
          16 124 rlineto
          3 -12 -24 5 -25 hhcurveto
          -173 -34 -109 -145 hvcurveto
          hintmask 11010000
          -172 36 -118 -156 vvcurveto
          -92 -12 -30 -50 -14 -12 1 3 -10 vhcurveto
          -16 -124 rlineto
          -3 12 24 -5 25 hhcurveto
          endchar
        </CharString>
        <CharString name="ismall">
          -169 0 40 callsubr
          hstem
          122 -30 callgsubr
          54 hmoveto
          308 134 -68 232 68 134 -308 -134 68 -232 -68 hlineto
          endchar
        </CharString>
        <CharString name="j">
          -295 -188 134 554 -20 82 172 hstem
          66 -30 callgsubr
          146 -47 callsubr
          -78 -62 rmoveto
          -2 -480 rlineto
          -47 callgsubr
          150 44 102 112 hvcurveto
          2 474 rlineto
          endchar
        </CharString>
        <CharString name="j.sups">
          -387 236 92 372 -20 58 116 hstem
          40 120 vstem
          100 738 rmoveto
          38 28 24 34 34 -28 24 -38 -39 -27 -24 -34 -34 27 -24 39 hvcurveto
          -72 -502 rmoveto
          102 30 70 74 hvcurveto
          320 -120 -324 vlineto
          -36 -7 -12 -23 -11 -9 2 2 -6 vhcurveto
          -20 -88 rlineto
          -4 14 18 -4 32 hhcurveto
          endchar
        </CharString>
        <CharString name="k">
          -17 11 callgsubr
          216 -20 hstem
          58 168 vstem
          -64 callgsubr
          endchar
        </CharString>
        <CharString name="l">
          -55 callgsubr
        </CharString>
        <CharString name="lefttorightembed">
          858 36 hstem
          -129 88 29 callgsubr
          -76 -36 76 hlineto
          -63 -66 rlineto
          -143 66 rmoveto
          88 36 -88 hlineto
          endchar
        </CharString>
        <CharString name="less">
          -45 94 476 37 callgsubr
          94 rmoveto
          140 vlineto
          -162 50 rlineto
          hintmask 11000000
          -136 46 rlineto
          4 vlineto
          136 46 162 50 rlineto
          140 vlineto
          -472 -180 rlineto
          -116 vlineto
          endchar
        </CharString>
        <CharString name="lessequal">
          -45 0 120 37 callgsubr
          154 rmoveto
          140 vlineto
          -158 36 rlineto
          hintmask 11000000
          -140 30 rlineto
          4 vlineto
          140 30 158 36 rlineto
          140 vlineto
          -472 -138 rlineto
          -140 vlineto
          -292 vmoveto
          -10 callsubr
          endchar
        </CharString>
        <CharString name="litre">
          -91 -12 142 454 124 hstem
          108 168 72 138 vstem
          442 174 rmoveto
          -20 -24 -32 -24 -38 hhcurveto
          -40 -32 23 56 hvcurveto
          19 vlineto
          153 105 57 79 122 vvcurveto
          108 -69 66 -105 -118 -86 -80 -173 vhcurveto
          -191 vlineto
          -31 -19 -34 -19 -37 -22 63 -104 rcurveline
          16 10 16 9 16 9 rrcurveto
          -93 26 84 -47 93 hhcurveto
          75 60 40 42 49 hvcurveto
          -228 407 rmoveto
          81 20 26 22 18 12 -18 -32 -62 -23 -46 -49 -46 vhcurveto
          endchar
        </CharString>
        <CharString name="logicalnot">
          -45 270 120 hstem
          382 124 vstem
          382 90 rmoveto
          124 300 -472 -120 348 hlineto
          endchar
        </CharString>
        <CharString name="lozenge">
          -25 -10 144 -123 -21 536 144 hstemhm
          50 460 hintmask 01110000
          212 -10 rmoveto
          136 hlineto
          162 340 -162 340 rlineto
          -136 hlineto
          -162 -340 rlineto
          hintmask 10110000
          228 -196 rmoveto
          -50 116 -38 80 38 80 50 116 rlineto
          4 hlineto
          50 -116 38 -80 -38 -80 -50 -116 rlineto
          endchar
        </CharString>
        <CharString name="lslash">
          -267 15 callsubr
          374 -20 216 -20 hstemhm
          70 20 callgsubr
          hintmask 11110000
          270 126 rmoveto
          -12 -16 10 34 hvcurveto
          168 vlineto
          104 56 -58 106 -46 -26 rlineto
          222 -172 -304 vlineto
          -98 -54 58 -106 40 23 rlineto
          -79 vlineto
          -112 38 -76 116 38 28 6 8 18 vhcurveto
          -20 126 rlineto
          -2 -8 -4 0 -6 hhcurveto
          endchar
        </CharString>
        <CharString name="m">
          283 21 -21 366 146 -12 -9 callsubr
          120 172 120 172 hintmask 10111100
          58 5 callgsubr
          hintmask 11011100
          328 vlineto
          26 26 24 12 20 hhcurveto
          34 16 -16 -64 hvcurveto
          -286 172 328 vlineto
          26 26 24 12 20 hhcurveto
          34 16 -16 -64 hvcurveto
          -286 172 308 vlineto
          124 -48 80 -110 -68 -45 -38 -42 -41 vhcurveto
          52 -27 -43 28 -68 hhcurveto
          -68 -42 -34 -39 -40 hvcurveto
          -4 hlineto
          hintmask 10111100
          -12 61 51 callsubr
        </CharString>
        <CharString name="macron">
          -25 588 108 hstem
          126 308 vstem
          126 -16 callsubr
          endchar
        </CharString>
        <CharString name="minus">
          -45 270 120 hstem
          34 472 vstem
          34 270 rmoveto
          -10 callsubr
          endchar
        </CharString>
        <CharString name="multiply">
          -45 106 446 hstem
          47 446 vstem
          132 106 rmoveto
          138 138 138 -138 85 85 -138 138 138 138 -85 85 -138 -138 -138 138 -85 -85 138 -138 -138 -138 rlineto
          endchar
        </CharString>
        <CharString name="n">
          -3 21 -21 366 146 -12 -20 32 -9 callsubr
          126 172 hintmask 10011100
          58 5 callgsubr
          hintmask 11001100
          328 vlineto
          24 26 18 14 32 hhcurveto
          34 16 -16 -64 hvcurveto
          -286 172 308 vlineto
          124 -46 80 -110 -68 -50 -34 -38 -40 vhcurveto
          -4 hlineto
          hintmask 10101100
          -12 60 51 callsubr
        </CharString>
        <CharString name="newsheqel">
          -45 endchar
        </CharString>
        <CharString name="newsheqel.heb">
          -45 endchar
        </CharString>
        <CharString name="newsheqel.lat">
          -85 endchar
        </CharString>
        <CharString name="nine">
          -19 callgsubr
          32 156 155 157 vstem
          252 -99 callsubr
        </CharString>
        <CharString name="nine.heb">
          -19 callgsubr
          32 156 155 157 vstem
          252 -99 callsubr
        </CharString>
        <CharString name="nine.lat">
          -19 callgsubr
          32 156 155 157 vstem
          252 -99 callsubr
        </CharString>
        <CharString name="nine.pnumheb">
          -45 endchar
        </CharString>
        <CharString name="nine.pnumlat">
          -19 callgsubr
          50 156 155 157 vstem
          270 -99 callsubr
        </CharString>
        <CharString name="notequal">
          32 callsubr
          48 30 rmoveto
          106 hlineto
          70 120 rlineto
          282 120 -216 hlineto
          66 120 rlineto
          150 120 -84 hlineto
          70 120 rlineto
          -106 hlineto
          -70 -120 rlineto
          -282 -120 216 hlineto
          -66 -120 rlineto
          -150 -120 84 hlineto
          endchar
        </CharString>
        <CharString name="ntilde">
          -3 21 -21 366 146 -12 -20 32 -20 80 41 callsubr
          58 172 126 172 -118 106 hintmask 0000000000000000
          hintmask 1001101010000000
          384 -61 callsubr
          hintmask 1001011100000000
          -65 callgsubr
          hintmask 1001101010000000
          26 38 -56 60 hhcurveto
          hintmask 1100011100000000
          -326 -572 rmoveto
          172 328 hlineto
          24 26 18 14 32 hhcurveto
          34 16 -16 -64 hvcurveto
          -286 172 308 vlineto
          124 -46 80 -110 -68 -50 -34 -38 -40 vhcurveto
          -4 hlineto
          hintmask 1010011100000000
          -12 60 51 callsubr
        </CharString>
        <CharString name="numbersign">
          -79 callgsubr
        </CharString>
        <CharString name="numbersign.heb">
          -45 endchar
        </CharString>
        <CharString name="numbersign.lat">
          -79 callgsubr
        </CharString>
        <CharString name="o">
          -25 -41 callgsubr
          30 callgsubr
          280 -12 rmoveto
          -104 callgsubr
        </CharString>
        <CharString name="o.sups">
          -56 callsubr
        </CharString>
        <CharString name="oacute">
          16 callsubr
          25 callgsubr
          64 -668 rmoveto
          -104 callgsubr
        </CharString>
        <CharString name="obreve">
          -25 -41 callgsubr
          60 106 hstemhm
          32 176 144 176 -170 96 hintmask 11111000
          280 11 callsubr
          hintmask 11110100
          -88 callsubr
          hintmask 11111000
          -22 callgsubr
          -584 vmoveto
          -104 callgsubr
        </CharString>
        <CharString name="ocircumflex">
          -25 -41 callgsubr
          130 104 30 callgsubr
          150 -83 callgsubr
          194 -630 rmoveto
          -104 callgsubr
        </CharString>
        <CharString name="odieresis">
          -25 -41 callgsubr
          50 160 hstemhm
          32 176 -122 35 callsubr
          -122 176 hintmask 00000000
          hintmask 11101100
          166 -98 callsubr
          hintmask 11110010
          -114 -574 rmoveto
          -104 callgsubr
        </CharString>
        <CharString name="oe">
          231 -12 134 -134 138 72 104 72 138 -130 130 hstemhm
          32 174 134 158 136 146 hintmask 01101111
          268 -12 rmoveto
          70 48 26 48 42 hvcurveto
          -48 42 56 -26 54 hhcurveto
          56 72 20 38 54 hvcurveto
          hintmask 10101111
          -15 callsubr
          -54 -26 -48 -42 vhcurveto
          44 -38 -48 30 -68 hhcurveto
          -130 -110 -96 -166 hvcurveto
          hintmask 01101111
          -166 106 -96 130 vhcurveto
          230 33 callgsubr
          -362 -176 rmoveto
          -44 -22 48 76 hvcurveto
          hintmask 01110111
          76 22 48 44 44 24 -48 -76 vhcurveto
          hintmask 01101111
          -76 -24 -48 -44 vhcurveto
          endchar
        </CharString>
        <CharString name="ogonek">
          -25 endchar
        </CharString>
        <CharString name="ograve">
          16 callsubr
          260 -54 callgsubr
          210 -742 rmoveto
          -104 callgsubr
        </CharString>
        <CharString name="omacron">
          -25 -41 callgsubr
          76 108 hstemhm
          32 176 -82 308 -82 176 hintmask 00000000
          hintmask 11101000
          126 -16 callsubr
          hintmask 11110100
          154 -708 rmoveto
          -104 callgsubr
        </CharString>
        <CharString name="one">
          -70 callsubr
        </CharString>
        <CharString name="one.heb">
          -70 callsubr
        </CharString>
        <CharString name="one.lat">
          -70 callsubr
        </CharString>
        <CharString name="one.pnumheb">
          -45 endchar
        </CharString>
        <CharString name="one.pnumlat">
          -159 21 -21 466 168 hstem
          154 -30 callgsubr
          154 15 callgsubr
          634 -126 hlineto
          -48 -30 -46 -18 -72 -14 rrcurveto
          -106 120 vlineto
          endchar
        </CharString>
        <CharString name="one.sups">
          -205 endchar
        </CharString>
        <CharString name="one.supsheb">
          -45 endchar
        </CharString>
        <CharString name="one.supslat">
          -85 endchar
        </CharString>
        <CharString name="onehalf">
          -66 callgsubr
        </CharString>
        <CharString name="onehalf.heb">
          -45 endchar
        </CharString>
        <CharString name="onehalf.lat">
          275 0 104 -95 -21 282 120 -90 102 260 -20 hstemhm
          162 126 234 298 -132 120 hintmask 10101100
          0 callsubr
          hintmask 01101100
          -6 -12 rlineto
          96 hlineto
          348 674 rlineto
          hintmask 10011101
          68 -558 rmoveto
          44 52 44 53 59 vvcurveto
          84 -60 50 -90 -62 -50 -26 -56 -44 vhcurveto
          70 -64 rlineto
          28 22 20 16 24 hhcurveto
          32 18 -20 -34 hvcurveto
          hintmask 10101110
          -44 -74 -64 -92 -72 vhcurveto
          -66 298 104 vlineto
          endchar
        </CharString>
        <CharString name="onequarter">
          -66 callgsubr
        </CharString>
        <CharString name="onequarter.heb">
          -45 endchar
        </CharString>
        <CharString name="onequarter.lat">
          275 0 160 -151 -21 92 80 110 120 -80 80 272 -20 hstemhm
          162 126 404 110 hintmask 10010111
          0 callsubr
          hintmask 01010111
          -6 -12 rlineto
          96 hlineto
          348 674 rlineto
          hintmask 10001111
          44 callsubr
          hintmask 00110111
          -132 -248 rlineto
          -62 180 vlineto
          hintmask 10010111
          -80 110 vlineto
          hintmask 00110111
          80 58 vlineto
          hintmask 10001111
          23 callgsubr
        </CharString>
        <CharString name="ordfeminine">
          -75 callsubr
        </CharString>
        <CharString name="ordmasculine">
          -56 callsubr
        </CharString>
        <CharString name="oslash">
          -25 -12 132 260 132 hstem
          32 166 164 166 vstem
          469 424 rmoveto
          45 56 -62 48 -42 -52 rlineto
          24 -39 -45 12 -46 hhcurveto
          -128 -120 -96 -166 -71 22 -59 36 -43 hvcurveto
          -44 -55 62 -48 41 51 rlineto
          -24 39 45 -13 47 hhcurveto
          128 120 96 166 72 -23 59 -36 43 hvcurveto
          -271 -164 rmoveto
          72 30 48 52 17 14 -4 -9 12 vhcurveto
          -123 -153 rlineto
          -1 14 -1 15 17 vvcurveto
          82 -140 rmoveto
          -17 -15 4 10 -12 hvcurveto
          123 153 rlineto
          2 -14 1 -15 -18 vvcurveto
          -72 -30 -48 -52 vhcurveto
          endchar
        </CharString>
        <CharString name="otilde">
          -25 -41 callgsubr
          60 41 callsubr
          32 176 -124 106 162 176 -158 106 hintmask 00000000
          hintmask 11101001
          344 -61 callsubr
          hintmask 11010110
          -65 callgsubr
          hintmask 11101001
          26 38 -56 60 hhcurveto
          hintmask 11011010
          -64 -584 rmoveto
          -104 callgsubr
        </CharString>
        <CharString name="p">
          29 callsubr
          -12 -9 callsubr
          138 176 hintmask 10101110
          58 -176 rmoveto
          172 138 hlineto
          -6 76 rlineto
          -32 32 38 -18 42 hhcurveto
          106 102 98 172 hvcurveto
          hintmask 10110110
          154 -76 100 -118 -50 -49 -24 -34 -37 vhcurveto
          -4 hlineto
          hintmask 11001110
          -12 46 rlineto
          -140 hlineto
          236 -372 rmoveto
          -22 -22 6 18 -20 hvcurveto
          hintmask 10110110
          184 vlineto
          26 22 20 10 26 hhcurveto
          46 24 -34 -82 hvcurveto
          hintmask 11001110
          -96 -34 -32 -40 vhcurveto
          endchar
        </CharString>
        <CharString name="paragraph">
          -40 callgsubr
        </CharString>
        <CharString name="paragraph.lat">
          -40 callgsubr
        </CharString>
        <CharString name="parenleft">
          -54 callsubr
        </CharString>
        <CharString name="parenleft.lat">
          -54 callsubr
        </CharString>
        <CharString name="parenright">
          -52 callsubr
        </CharString>
        <CharString name="parenright.lat">
          -52 callsubr
        </CharString>
        <CharString name="partialdiff">
          11 15 callsubr
          162 130 106 138 hstem
          51 157 176 162 vstem
          305 662 rmoveto
          -73 -60 -28 -48 -58 hvcurveto
          73 -106 rlineto
          29 31 30 15 38 hhcurveto
          76 22 -58 -91 hvcurveto
          -14 vlineto
          37 -31 -44 20 -44 hhcurveto
          -122 -92 -92 -139 -122 91 -77 111 171 122 154 238 168 -76 114 -165 hvcurveto
          -33 -536 rmoveto
          -33 -31 21 50 71 39 20 40 32 30 -14 -38 22 hvcurveto
          -87 -21 -41 -23 -37 hhcurveto
          endchar
        </CharString>
        <CharString name="percent">
          -66 callgsubr
        </CharString>
        <CharString name="percent.heb">
          -45 endchar
        </CharString>
        <CharString name="percent.lat">
          285 -12 94 226 94 260 -20 hstem
          22 118 362 118 100 118 vstem
          556 662 rmoveto
          -205 -398 rlineto
          88 -21 -62 50 -78 hhcurveto
          -96 -72 -76 -130 -130 72 -78 96 6 6 0 1 7 hvcurveto
          -1 -1 rlineto
          96 hlineto
          348 674 rlineto
          18 -260 rmoveto
          -96 -72 -76 -130 -130 72 -78 96 96 72 78 130 130 -72 76 -96 hvcurveto
          -530 -206 rmoveto
          88 24 24 26 26 24 -24 -88 -88 -24 -26 -26 -26 -24 26 88 vhcurveto
          530 -114 rmoveto
          -35 callgsubr
          endchar
        </CharString>
        <CharString name="period">
          -265 14 callgsubr
          hstemhm
          60 200 hintmask 01100000
          160 -12 46 callsubr
          hvcurveto
          hintmask 10100000
          58 -42 46 -58 -58 -42 -46 -58 vhcurveto
          hintmask 01100000
          -58 42 -46 58 vhcurveto
          endchar
        </CharString>
        <CharString name="periodcentered">
          -265 216 208 hstem
          60 200 vstem
          160 216 rmoveto
          -91 callsubr
          endchar
        </CharString>
        <CharString name="periodcentered.lat">
          -265 216 208 hstem
          60 200 vstem
          160 216 rmoveto
          -91 callsubr
          endchar
        </CharString>
        <CharString name="perthousand">
          -79 callsubr
        </CharString>
        <CharString name="perthousand.heb">
          -45 endchar
        </CharString>
        <CharString name="perthousand.lat">
          685 -12 94 226 94 260 -20 hstem
          122 118 100 118 44 118 100 118 44 118 100 118 vstem
          -172 -12 rmoveto
          96 hlineto
          348 674 rlineto
          -96 hlineto
          114 -674 rmoveto
          -27 callsubr
          380 hmoveto
          -27 callsubr
          380 hmoveto
          -27 callsubr
          -760 94 rmoveto
          -35 callgsubr
          380 hmoveto
          -35 callgsubr
          380 hmoveto
          -35 callgsubr
          endchar
        </CharString>
        <CharString name="pi">
          69 15 callsubr
          -117 -21 23 -21 31 -21 366 134 hstemhm
          122 161 89 162 hintmask 00000000
          hintmask 01001110
          536 -12 rmoveto
          41 37 8 8 20 hvcurveto
          hintmask 10001110
          -20 126 rlineto
          -2 -13 -13 -2 -10 hhcurveto
          -28 -16 10 34 14 0 104 6 78 hvcurveto
          92 134 -540 hlineto
          -76 -6 rlineto
          -128 106 vlineto
          hintmask 00011110
          -102 -11 -132 -25 -132 vhcurveto
          hintmask 00101110
          172 -10 rlineto
          13 128 12 136 112 vvcurveto
          93 hlineto
          -74 -4 -94 -22 vvcurveto
          hintmask 01001110
          -112 40 -76 124 vhcurveto
          endchar
        </CharString>
        <CharString name="plus">
          -45 270 120 hstem
          208 124 vstem
          208 90 rmoveto
          124 180 174 120 -174 180 -124 -180 -174 -120 174 hlineto
          endchar
        </CharString>
        <CharString name="plusminus">
          -45 0 120 170 120 hstem
          208 124 vstem
          208 170 rmoveto
          124 120 174 120 -174 160 -124 -160 -174 -120 174 hlineto
          -174 -290 rmoveto
          -10 callsubr
          endchar
        </CharString>
        <CharString name="popdirectionformat">
          765 229 hstem
          -19 36 vstem
          -19 765 rmoveto
          36 160 hlineto
          62 -64 25 26 -104 107 -104 -107 25 -26 60 63 rlineto
          endchar
        </CharString>
        <CharString name="product">
          139 484 150 hstem
          76 172 228 -30 callgsubr
          76 -120 rmoveto
          172 604 228 -604 172 754 -572 hlineto
          endchar
        </CharString>
        <CharString name="q">
          -5 -155 -21 164 140 244 140 36 callgsubr
          36 176 138 172 hintmask 11001110
          350 -176 rmoveto
          172 hlineto
          hintmask 11010110
          676 -134 vlineto
          hintmask 11001110
          -14 -50 rlineto
          -4 hlineto
          44 -38 -39 18 -53 hhcurveto
          -102 -102 -98 -164 -162 80 -100 124 40 46 20 30 30 hvcurveto
          -6 -71 rlineto
          -64 161 rmoveto
          -46 -28 34 90 hvcurveto
          hintmask 11100110
          -34 callsubr
          hintmask 11001110
          13 callsubr
          endchar
        </CharString>
        <CharString name="question">
          -78 callgsubr
        </CharString>
        <CharString name="question.lat">
          -78 callgsubr
        </CharString>
        <CharString name="questiondown">
          -76 callsubr
        </CharString>
        <CharString name="questiondown.lat">
          -76 callsubr
        </CharString>
        <CharString name="quotedbl">
          -50 callsubr
        </CharString>
        <CharString name="quotedbl.lat">
          -50 callsubr
        </CharString>
        <CharString name="quotedblbase">
          -5 -157 -21 200 37 callsubr
          196 -97 callgsubr
        </CharString>
        <CharString name="quotedblbase.lat">
          -5 -157 -21 200 37 callsubr
          196 -97 callgsubr
        </CharString>
        <CharString name="quotedblleft">
          -5 304 174 hstem
          54 96 164 96 vstem
          246 604 rmoveto
          -36 74 rlineto
          -106 -50 -50 -78 -100 vvcurveto
          -92 36 -54 70 50 36 36 56 50 -38 32 -48 -3 -4 0 -1 -3 vhcurveto
          60 32 39 64 28 vhcurveto
          174 -126 -80 callgsubr
        </CharString>
        <CharString name="quotedblleft.lat">
          -5 304 174 hstem
          54 96 164 96 vstem
          246 604 rmoveto
          -36 74 rlineto
          -106 -50 -50 -78 -100 vvcurveto
          -92 36 -54 70 50 36 36 56 50 -38 32 -48 -3 -4 0 -1 -3 vhcurveto
          60 32 39 64 28 vhcurveto
          174 -126 -80 callgsubr
        </CharString>
        <CharString name="quotedblright">
          -5 522 37 callsubr
          696 -97 callgsubr
        </CharString>
        <CharString name="quotedblright.lat">
          -5 522 37 callsubr
          696 -97 callgsubr
        </CharString>
        <CharString name="quoteleft">
          -265 304 174 hstem
          54 96 vstem
          160 478 -80 callgsubr
        </CharString>
        <CharString name="quoteleft.lat">
          -265 304 174 hstem
          54 96 vstem
          160 478 -80 callgsubr
        </CharString>
        <CharString name="quoteright">
          -53 callgsubr
        </CharString>
        <CharString name="quoteright.lat">
          -53 callgsubr
        </CharString>
        <CharString name="quotesinglbase">
          -45 callsubr
        </CharString>
        <CharString name="quotesinglbase.lat">
          -45 callsubr
        </CharString>
        <CharString name="quotesingle">
          -265 324 360 hstem
          77 166 vstem
          114 324 23 callsubr
        </CharString>
        <CharString name="quotesingle.lat">
          -265 324 360 hstem
          77 166 vstem
          114 324 23 callsubr
        </CharString>
        <CharString name="r">
          -167 21 -21 362 150 -12 -20 22 -20 30 -9 callsubr
          hintmask 10001100
          58 5 callgsubr
          hintmask 11000100
          278 vlineto
          62 24 44 22 36 hhcurveto
          22 16 -4 -4 18 hvcurveto
          hintmask 10010100
          28 148 rlineto
          hintmask 10001100
          6 -14 -17 4 -31 hhcurveto
          -49 -56 -30 -68 -37 hvcurveto
          -4 hlineto
          hintmask 10100100
          -12 86 51 callsubr
        </CharString>
        <CharString name="radical">
          15 -74 164 hstemhm
          22 586 hintmask 00000000
          hintmask 11000000
          276 -74 rmoveto
          116 hlineto
          216 894 rlineto
          -112 hlineto
          -150 -640 -6 -30 -6 -30 -4 -30 rlinecurve
          -4 hlineto
          -6 30 -8 30 -8 30 -92 274 rcurveline
          -190 -76 28 -78 76 30 rlineto
          endchar
        </CharString>
        <CharString name="registered">
          -83 callsubr
        </CharString>
        <CharString name="registered.lat">
          -83 callsubr
        </CharString>
        <CharString name="righttoleftembed">
          858 36 hstem
          41 88 48 callsubr
          75 36 -76 hlineto
          63 64 -25 26 -105 -109 rlineto
          185 -17 rmoveto
          88 36 -88 hlineto
          endchar
        </CharString>
        <CharString name="ring">
          -25 568 62 88 62 hstem
          140 102 76 102 vstem
          280 568 rmoveto
          -26 callsubr
        </CharString>
        <CharString name="ringhalfleftmod">
          -405 endchar
        </CharString>
        <CharString name="ringhalfrightmod">
          -405 endchar
        </CharString>
        <CharString name="rsmall">
          -39 21 -21 150 115 110 125 hstem
          58 172 89 169 vstem
          538 hmoveto
          -121 191 rlineto
          42 28 29 45 64 vvcurveto
          130 -96 42 -117 vhcurveto
          -217 -500 172 150 38 hlineto
          79 -150 rlineto
          -117 375 rmoveto
          25 hlineto
          44 20 -18 -34 -33 -20 -25 -44 hvcurveto
          -25 hlineto
          endchar
        </CharString>
        <CharString name="rsmallinverted">
          -39 0 125 110 115 150 -20 hstem
          58 169 89 -30 callgsubr
          316 500 rmoveto
          -150 -38 vlineto
          -79 150 rlineto
          -191 hlineto
          121 -191 rlineto
          -42 -28 -29 -45 -64 vvcurveto
          -130 96 -42 117 vhcurveto
          217 500 hlineto
          -172 -375 rmoveto
          -25 hlineto
          -44 -20 18 34 33 20 25 44 hvcurveto
          25 hlineto
          endchar
        </CharString>
        <CharString name="s">
          30 callsubr
          hstem
          44 160 62 160 vstem
          212 -12 rmoveto
          -100 callgsubr
          -42 52 78 -28 64 hhcurveto
          endchar
        </CharString>
        <CharString name="sacute">
          30 callsubr
          144 -20 hstem
          44 160 62 160 vstem
          270 -77 callsubr
          26 -668 rmoveto
          -100 callgsubr
          -42 52 78 -28 64 hhcurveto
          endchar
        </CharString>
        <CharString name="scaron">
          30 callsubr
          66 31 callsubr
          44 160 62 160 hintmask 00000000
          hintmask 11101110
          162 578 rmoveto
          176 hlineto
          hintmask 11011110
          106 128 -64 60 rlineto
          hintmask 11101110
          -29 callsubr
          hintmask 11011110
          -64 -60 rlineto
          156 -718 rmoveto
          -100 callgsubr
          -42 52 78 -28 64 hhcurveto
          endchar
        </CharString>
        <CharString name="section">
          -92 callgsubr
        </CharString>
        <CharString name="section.lat">
          -92 callgsubr
        </CharString>
        <CharString name="semicolon">
          -265 8 188 102 208 0 -20 hstemhm
          60 200 -93 111 hintmask 00000000
          hintmask 11010000
          160 298 rmoveto
          -91 callsubr
          hintmask 10101000
          4 -102 -21 callsubr
        </CharString>
        <CharString name="seven">
          -76 callgsubr
        </CharString>
        <CharString name="seven.heb">
          -76 callgsubr
        </CharString>
        <CharString name="seven.lat">
          -76 callgsubr
        </CharString>
        <CharString name="seven.pnumheb">
          -45 endchar
        </CharString>
        <CharString name="seven.pnumlat">
          -59 21 -21 490 144 hstem
          142 -30 callgsubr
          142 5 callgsubr
          12 247 14 110 144 171 rrcurveto
          106 -440 -144 258 vlineto
          -116 -163 -32 -127 -12 -200 rrcurveto
          endchar
        </CharString>
        <CharString name="six">
          -19 callsubr
          38 157 155 156 vstem
          314 -99 callgsubr
        </CharString>
        <CharString name="six.heb">
          -19 callsubr
          38 157 155 156 vstem
          314 -99 callgsubr
        </CharString>
        <CharString name="six.lat">
          -19 callsubr
          38 157 155 156 vstem
          314 -99 callgsubr
        </CharString>
        <CharString name="six.pnumheb">
          -45 endchar
        </CharString>
        <CharString name="six.pnumlat">
          -19 callsubr
          56 157 155 156 vstem
          332 -99 callgsubr
        </CharString>
        <CharString name="slash">
          -2 callsubr
        </CharString>
        <CharString name="slash.lat">
          -2 callsubr
        </CharString>
        <CharString name="space">
          -385 endchar
        </CharString>
        <CharString name="sterling">
          -84 callgsubr
        </CharString>
        <CharString name="sterling.heb">
          -45 endchar
        </CharString>
        <CharString name="sterling.lat">
          -84 callgsubr
        </CharString>
        <CharString name="summation">
          -39 -120 144 466 144 hstem
          28 506 vstem
          28 -120 rmoveto
          506 144 -294 4 hlineto
          156 228 -150 230 rlineto
          4 266 144 -474 -100 vlineto
          184 -278 -194 -276 rlineto
          endchar
        </CharString>
        <CharString name="t">
          -185 -12 10 callgsubr
          hstemhm
          80 172 hintmask 01110000
          3 callsubr
          hintmask 10110000
          -92 callsubr
          hintmask 01110000
          13 callgsubr
          endchar
        </CharString>
        <CharString name="theta">
          -25 15 callsubr
          -138 306 112 302 -138 138 hstemhm
          44 92 288 92 hintmask 10011100
          280 -12 rmoveto
          140 96 122 240 245 -96 113 -140 -140 -96 -112 -246 -240 96 -122 140 hvcurveto
          138 vmoveto
          -38 -32 38 186 194 32 26 38 38 32 -26 -194 -186 -32 -38 -38 hvcurveto
          hintmask 01101100
          -144 168 rmoveto
          112 288 -112 vlineto
          endchar
        </CharString>
        <CharString name="thorn">
          29 callsubr
          184 -9 callsubr
          138 176 hintmask 10111110
          58 -176 rmoveto
          172 138 hlineto
          -4 70 rlineto
          -28 30 32 -16 48 hhcurveto
          106 102 98 172 154 -80 100 -124 -42 -41 -16 -28 -31 hvcurveto
          4 65 rlineto
          163 -172 vlineto
          hintmask 11011110
          236 -568 -37 callgsubr
          endchar
        </CharString>
        <CharString name="three">
          -103 callsubr
        </CharString>
        <CharString name="three.heb">
          -103 callsubr
        </CharString>
        <CharString name="three.lat">
          -103 callsubr
        </CharString>
        <CharString name="three.pnumheb">
          -45 endchar
        </CharString>
        <CharString name="three.pnumlat">
          -103 callsubr
        </CharString>
        <CharString name="three.sups">
          -205 endchar
        </CharString>
        <CharString name="three.supsheb">
          -45 endchar
        </CharString>
        <CharString name="three.supslat">
          -85 endchar
        </CharString>
        <CharString name="threequarters">
          -66 callgsubr
        </CharString>
        <CharString name="threequarters.heb">
          -45 endchar
        </CharString>
        <CharString name="threequarters.lat">
          275 -12 94 -82 160 -80 80 4 70 74 94 -92 80 272 -20 hstemhm
          208 122 362 110 hintmask 0100011110000000
          556 662 rmoveto
          -247 -478 -9 8 -11 7 -11 5 rlinecurve
          34 22 18 26 40 vvcurveto
          hintmask 1001101110000000
          68 -66 42 -74 -64 -40 -20 -48 -46 vhcurveto
          70 -62 rlineto
          20 16 18 16 24 hhcurveto
          24 16 -12 -22 -30 -27 -10 -41 hvcurveto
          -70 vlineto
          57 25 -14 -30 -24 -21 -14 -27 -30 -22 12 32 -24 hvcurveto
          -74 -58 rlineto
          -54 36 58 -26 70 hhcurveto
          7 7 0 1 7 hvcurveto
          -1 -1 rlineto
          96 hlineto
          348 674 rlineto
          hintmask 0100011110000000
          44 callsubr
          hintmask 0010011110000000
          -132 -248 rlineto
          -62 180 vlineto
          hintmask 0100011110000000
          -80 110 vlineto
          hintmask 0010011110000000
          80 58 vlineto
          hintmask 0100011110000000
          23 callgsubr
        </CharString>
        <CharString name="tilde">
          -25 572 41 callsubr
          84 106 180 106 hintmask 00000000
          hintmask 10110000
          344 -61 callsubr
          hintmask 01110000
          -65 callgsubr
          hintmask 10110000
          26 38 -56 60 hhcurveto
          endchar
        </CharString>
        <CharString name="tildecomb">
          572 41 callsubr
          -196 106 180 106 hintmask 00000000
          hintmask 10110000
          64 -61 callsubr
          hintmask 01110000
          -65 callgsubr
          hintmask 10110000
          26 38 -56 60 hhcurveto
          endchar
        </CharString>
        <CharString name="tildecomb.cap">
          686 17 callsubr
          -206 39 callsubr
          hintmask 00000000
          hintmask 10001000
          70 686 rmoveto
          -36 callsubr
          hintmask 01110000
          -55 callsubr
          hintmask 10001000
          28 36 -52 70 hhcurveto
          endchar
        </CharString>
        <CharString name="trademark">
          -74 callsubr
        </CharString>
        <CharString name="trademark.lat">
          -74 callsubr
        </CharString>
        <CharString name="two">
          -87 callsubr
        </CharString>
        <CharString name="two.heb">
          -87 callsubr
        </CharString>
        <CharString name="two.lat">
          -87 callsubr
        </CharString>
        <CharString name="two.pnumheb">
          -45 endchar
        </CharString>
        <CharString name="two.pnumlat">
          -49 0 144 368 6 callsubr
          302 164 vstem
          46 hmoveto
          440 144 -86 hlineto
          -28 -46 -4 -4 -32 hvcurveto
          81 88 91 112 102 vvcurveto
          126 -84 82 -128 -94 -62 -32 -70 -66 vhcurveto
          92 -92 rlineto
          30 30 34 30 42 hhcurveto
          46 26 -27 -57 -86 -110 -106 -146 -138 hvcurveto
          endchar
        </CharString>
        <CharString name="two.sups">
          -205 endchar
        </CharString>
        <CharString name="two.supsheb">
          -45 endchar
        </CharString>
        <CharString name="two.supslat">
          -85 endchar
        </CharString>
        <CharString name="u">
          -42 callsubr
          hstemhm
          54 172 122 20 callgsubr
          hintmask 01011100
          210 -12 rmoveto
          68 46 30 48 40 hvcurveto
          4 hlineto
          hintmask 00111100
          12 -66 rlineto
          140 500 -42 callgsubr
          hintmask 10011100
          -322 vlineto
          -32 -22 -18 -12 -32 hhcurveto
          -34 -16 16 64 hvcurveto
          286 -172 -308 vlineto
          hintmask 01011100
          -124 46 -80 110 vhcurveto
          endchar
        </CharString>
        <CharString name="uacute">
          -42 callsubr
          176 -20 3 callgsubr
          320 -77 callsubr
          hintmask 01011110
          -26 -668 -93 callsubr
        </CharString>
        <CharString name="ucircumflex">
          -42 callsubr
          162 104 3 callgsubr
          170 -83 callgsubr
          hintmask 01011110
          104 -630 -93 callsubr
        </CharString>
        <CharString name="udieresis">
          -42 callsubr
          82 160 hstemhm
          54 172 -120 35 callsubr
          -146 172 hintmask 0000000000000000
          hintmask 0011101100000000
          186 -98 callsubr
          hintmask 0101110010000000
          -204 -574 rmoveto
          68 46 30 48 40 hvcurveto
          4 hlineto
          hintmask 0011110010000000
          12 -66 rlineto
          140 500 -42 callgsubr
          hintmask 1001110010000000
          -322 vlineto
          -32 -22 -18 -12 -32 hhcurveto
          -34 -16 16 64 hvcurveto
          286 -172 -308 vlineto
          hintmask 0101110010000000
          -124 46 -80 110 vhcurveto
          endchar
        </CharString>
        <CharString name="ugrave">
          -42 callsubr
          176 -20 3 callgsubr
          280 -54 callgsubr
          hintmask 01011110
          120 -742 -93 callsubr
        </CharString>
        <CharString name="umacron">
          -42 callsubr
          108 108 3 callgsubr
          146 -16 callsubr
          hintmask 01011110
          64 -708 -93 callsubr
        </CharString>
        <CharString name="underscore">
          -85 -146 94 hstem
          12 476 vstem
          12 -146 rmoveto
          476 94 -476 hlineto
          endchar
        </CharString>
        <CharString name="uni00A0">
          -375 endchar
        </CharString>
        <CharString name="uni00AD">
          -59 callsubr
        </CharString>
        <CharString name="uni018F">
          97 -12 140 128 124 142 140 hstem
          48 176 vstem
          344 662 rmoveto
          -106 -76 -34 -48 -54 hvcurveto
          78 -118 rlineto
          30 34 42 30 60 hhcurveto
          84 47 -43 -99 12 hvcurveto
          -413 hlineto
          -2 -20 -2 -20 -18 vvcurveto
          -222 114 -112 178 178 120 116 222 222 -122 114 -172 vhcurveto
          -4 -534 rmoveto
          -66 -42 32 96 -8 hvcurveto
          239 hlineto
          -92 -15 -46 -36 -62 hhcurveto
          endchar
        </CharString>
        <CharString name="uni0250">
          -43 -12 136 256 132 36 callgsubr
          52 172 108 164 hintmask 10011100
          280 -12 rmoveto
          73 70 24 42 67 hvcurveto
          -60 112 rlineto
          -28 -52 -35 -14 -37 hhcurveto
          -50 -27 14 36 -5 hvcurveto
          192 21 80 71 106 vvcurveto
          77 -48 63 -88 -66 -50 -28 -42 -36 vhcurveto
          -4 hlineto
          hintmask 10101100
          -12 58 rlineto
          -140 -274 hlineto
          hintmask 10011100
          -164 86 -74 142 vhcurveto
          -56 290 rmoveto
          hintmask 11001100
          58 vlineto
          26 19 21 18 28 hhcurveto
          24 16 -13 -23 hvcurveto
          hintmask 10011100
          -28 -26 -26 -82 -12 vhcurveto
          endchar
        </CharString>
        <CharString name="uni0254">
          -113 -41 callgsubr
          hstem
          264 176 vstem
          188 -12 rmoveto
          140 112 96 166 168 -114 94 -134 -68 -60 -22 -30 -38 hvcurveto
          80 -110 rlineto
          18 22 16 6 28 hhcurveto
          54 38 -48 -76 -76 -42 -48 -54 -28 -28 14 18 -24 hvcurveto
          -66 -112 rlineto
          -44 50 64 -14 52 hhcurveto
          endchar
        </CharString>
        <CharString name="uni0259">
          -59 -12 130 72 112 80 130 hstem
          36 146 vstem
          254 -12 rmoveto
          126 114 100 162 162 -104 100 -134 -60 -71 -12 -38 -57 hvcurveto
          56 -110 rlineto
          20 34 34 10 34 hhcurveto
          52 36 -20 -60 14 hvcurveto
          -285 hlineto
          -3 -12 -4 -30 -30 vvcurveto
          -134 70 -108 148 vhcurveto
          -4 130 rmoveto
          -52 -16 34 38 hvcurveto
          148 hlineto
          -54 -10 -32 -18 -38 hhcurveto
          endchar
        </CharString>
        <CharString name="uni025B">
          -115 -12 -46 callsubr
          hstemhm
          44 168 -146 168 hintmask 11110000
          276 -12 rmoveto
          61 53 10 38 62 hvcurveto
          -66 108 rlineto
          -18 -34 -35 -8 -24 hhcurveto
          -47 -34 16 28 28 17 8 41 hvcurveto
          89 112 hlineto
          hintmask 11101000
          -73 hlineto
          -34 -18 8 24 22 18 18 36 34 26 -8 -16 32 hvcurveto
          62 110 rlineto
          30 -52 -54 14 -58 hhcurveto
          -112 -100 -43 -103 -38 24 -46 57 -16 hvcurveto
          -4 vlineto
          hintmask 11110000
          -63 -16 -40 -36 -66 vvcurveto
          -104 118 -52 114 vhcurveto
          endchar
        </CharString>
        <CharString name="uni026B">
          -55 callgsubr
        </CharString>
        <CharString name="uni0283">
          -295 -188 134 628 6 callsubr
          60 -30 callgsubr
          38 -56 callgsubr
          endchar
        </CharString>
        <CharString name="uni028E">
          -43 21 -21 574 134 -10 -20 hstemhm
          12 518 hintmask 10110000
          12 hmoveto
          164 hlineto
          50 192 12 48 10 46 10 48 rlinecurve
          4 hlineto
          12 -50 10 -46 14 -46 60 -192 rcurveline
          172 hlineto
          hintmask 11010000
          -190 482 14 42 rlineto
          30 10 22 20 46 hhcurveto
          10 13 -4 -2 9 hvcurveto
          hintmask 10110000
          30 130 rlineto
          hintmask 11010000
          6 -22 -20 4 -34 hhcurveto
          -124 -54 -61 -135 -52 hvcurveto
          endchar
        </CharString>
        <CharString name="uni0292">
          -111 -188 138 416 6 callsubr
          280 -30 callgsubr
          216 -188 rmoveto
          38 callgsubr
          134 173 rlineto
          92 -392 -134 188 vlineto
          -21 callgsubr
          endchar
        </CharString>
        <CharString name="uni0294">
          -125 21 -21 570 138 hstemhm
          122 172 -22 172 hintmask 11100000
          122 15 callgsubr
          252 hlineto
          hintmask 11010000
          88 73 62 65 108 vvcurveto
          141 -108 69 -124 -99 -71 -38 -52 -50 vhcurveto
          84 -108 rlineto
          34 32 40 26 44 hhcurveto
          48 32 -27 -53 hvcurveto
          hintmask 11100000
          -58 -37 -42 -113 -76 vhcurveto
          endchar
        </CharString>
        <CharString name="uni0295">
          -55 21 -21 570 138 hstemhm
          46 172 -22 172 hintmask 11010000
          196 15 callgsubr
          314 hlineto
          hintmask 11100000
          -113 76 -37 42 58 vvcurveto
          53 36 27 54 40 37 -26 -34 29 vhcurveto
          84 108 rlineto
          52 -48 -68 38 -94 hhcurveto
          -129 -113 -69 -141 hvcurveto
          hintmask 11010000
          -108 62 -65 88 -73 vhcurveto
          endchar
        </CharString>
        <CharString name="uni02A4">
          371 -188 138 38 140 -107 -21 366 134 -128 140 41 callgsubr
          36 176 138 172 240 172 hintmask 1011001111000000
          776 235 rmoveto
          134 173 rlineto
          92 -388 196 -172 vlineto
          hintmask 1100011111000000
          -162 vlineto
          6 -72 rlineto
          30 -30 -32 20 -54 hhcurveto
          -102 -102 -98 -164 -162 80 -100 124 44 48 24 34 34 hvcurveto
          4 hlineto
          hintmask 1011001111000000
          12 -46 rlineto
          140 366 184 hlineto
          -21 callgsubr
          38 callgsubr
          hintmask 1100101111000000
          -426 -71 rmoveto
          13 callsubr
          -46 -28 34 90 88 34 32 36 22 26 -6 -18 20 hvcurveto
          endchar
        </CharString>
        <CharString name="uni02A6">
          103 -12 126 -126 134 244 134 -114 126 hstemhm
          80 172 152 160 62 160 hintmask 10101000
          3 callsubr
          hintmask 01101000
          -92 callsubr
          hintmask 10101000
          13 callgsubr
          308 hmoveto
          hintmask 10011110
          -100 callgsubr
          hintmask 10101000
          -42 52 78 -28 64 hhcurveto
          endchar
        </CharString>
        <CharString name="uni02A7">
          103 -188 134 42 10 callgsubr
          74 134 hstemhm
          80 172 206 172 hintmask 10111110
          436 -56 callgsubr
          -172 176 rmoveto
          55 37 10 8 26 hvcurveto
          hintmask 11011110
          -92 callsubr
          hintmask 10111110
          13 callgsubr
          endchar
        </CharString>
        <CharString name="uni02B9">
          -265 endchar
        </CharString>
        <CharString name="uni02C8">
          -425 542 208 hstem
          15 130 vstem
          18 542 rmoveto
          124 hlineto
          6 208 rlineto
          -136 hlineto
          endchar
        </CharString>
        <CharString name="uni02D0">
          -265 0 210 -189 -21 290 210 0 -20 hstemhm
          40 240 hintmask 00000000
          hintmask 01101000
          152 290 rmoveto
          16 hlineto
          112 210 rlineto
          -240 hlineto
          -500 vmoveto
          240 hlineto
          hintmask 10011000
          -112 210 rlineto
          -16 hlineto
          endchar
        </CharString>
        <CharString name="uni0302">
          642 104 hstem
          -194 388 vstem
          -130 -83 callgsubr
          endchar
        </CharString>
        <CharString name="uni0302.cap">
          760 74 hstem
          -178 356 vstem
          -104 -71 callsubr
          endchar
        </CharString>
        <CharString name="uni0304">
          588 108 hstem
          -154 308 vstem
          -154 -16 callsubr
          endchar
        </CharString>
        <CharString name="uni0304.cap">
          716 108 hstem
          -158 316 vstem
          -158 -16 callgsubr
          endchar
        </CharString>
        <CharString name="uni0306">
          572 106 hstem
          78 96 vstem
          572 vmoveto
          -88 callsubr
          -22 callgsubr
          endchar
        </CharString>
        <CharString name="uni0306.cap">
          694 98 hstem
          -170 340 vstem
          694 vmoveto
          -71 callgsubr
          endchar
        </CharString>
        <CharString name="uni0307">
          562 172 hstem
          -92 184 vstem
          562 vmoveto
          -105 callgsubr
          endchar
        </CharString>
        <CharString name="uni0307.cap">
          696 172 hstem
          -96 192 vstem
          696 vmoveto
          27 callsubr
          endchar
        </CharString>
        <CharString name="uni0308">
          562 160 hstem
          -194 35 callsubr
          vstem
          -114 -98 callsubr
          endchar
        </CharString>
        <CharString name="uni0308.cap">
          694 156 hstem
          -192 45 callsubr
          vstem
          -114 -96 callsubr
          endchar
        </CharString>
        <CharString name="uni030A">
          568 62 88 62 hstem
          -140 102 76 102 vstem
          568 vmoveto
          -26 callsubr
        </CharString>
        <CharString name="uni030A.cap">
          696 62 80 62 hstem
          -120 82 76 82 vstem
          696 vmoveto
          28 callgsubr
          62 vmoveto
          -21 -17 16 24 24 17 16 21 21 17 -16 -24 -24 -17 -16 -21 hvcurveto
          endchar
        </CharString>
        <CharString name="uni030B">
          564 224 hstem
          -142 392 vstem
          -52 564 -11 callgsubr
          280 -40 -11 callgsubr
          endchar
        </CharString>
        <CharString name="uni030B.cap">
          690 204 hstem
          -148 410 vstem
          -64 690 38 callsubr
          282 -40 38 callsubr
          endchar
        </CharString>
        <CharString name="uni030C">
          578 31 callsubr
          -194 388 hintmask 00000000
          hintmask 10110000
          -88 -15 callgsubr
        </CharString>
        <CharString name="uni030C.cap">
          700 74 hstem
          -178 356 vstem
          -94 -66 callsubr
          endchar
        </CharString>
        <CharString name="uni031E">
          -260 184 -80 80 hstemhm
          -44 88 hintmask 10100000
          -44 -260 rmoveto
          88 hlineto
          hintmask 01100000
          104 68 vlineto
          hintmask 10100000
          80 -224 vlineto
          hintmask 01100000
          -80 68 vlineto
          endchar
        </CharString>
        <CharString name="uni0327">
          -244 66 118 64 hstem
          -20 122 vstem
          -108 -25 callgsubr
        </CharString>
        <CharString name="uni032E">
          -234 106 hstem
          78 96 vstem
          -234 vmoveto
          -88 callsubr
          -22 callgsubr
          endchar
        </CharString>
        <CharString name="uni0331">
          8 callgsubr
          hstem
          -154 308 vstem
          -154 -196 -72 callsubr
        </CharString>
        <CharString name="uni0361">
          622 108 hstem
          -458 916 vstem
          -414 530 rmoveto
          72 130 166 20 118 hhcurveto
          118 166 -20 -72 130 hvcurveto
          44 78 rlineto
          84 -138 -164 38 -156 hhcurveto
          -156 -164 -38 -84 -138 hvcurveto
          endchar
        </CharString>
        <CharString name="uni0394.math">
          75 endchar
        </CharString>
        <CharString name="uni03A9.math">
          139 endchar
        </CharString>
        <CharString name="uni03BC.math">
          21 endchar
        </CharString>
        <CharString name="uni05B0">
          -250 75 32 74 46 callgsubr
          -69 rmoveto
          -86 callgsubr
          -106 vmoveto
          22 callsubr
        </CharString>
        <CharString name="uni05B1">
          -250 75 32 74 hstemhm
          28 71 -20 71 -18 71 33 71 hintmask 11101100
          64 -69 rmoveto
          -86 callgsubr
          104 hmoveto
          -86 callgsubr
          104 hmoveto
          -86 callgsubr
          hintmask 11010100
          -157 -106 rmoveto
          -21 -15 -19 -19 -20 15 -17 21 22 13 17 20 19 -13 19 -22 hvcurveto
          157 hmoveto
          22 callsubr
        </CharString>
        <CharString name="uni05B2">
          -250 75 32 74 -57 41 hstemhm
          28 170 27 71 hintmask 00000000
          hintmask 11001000
          -4 callgsubr
          170 hlineto
          hintmask 10101000
          12 callsubr
        </CharString>
        <CharString name="uni05B3">
          -250 75 32 74 -57 41 hstemhm
          48 callgsubr
          91 71 hintmask 00000000
          hintmask 11011000
          -4 callgsubr
          66 hlineto
          -5 -100 rlineto
          48 hlineto
          -6 100 rlineto
          67 hlineto
          12 callsubr
        </CharString>
        <CharString name="uni05B4">
          -143 74 46 callgsubr
          -69 rmoveto
          -86 callgsubr
          endchar
        </CharString>
        <CharString name="uni05B5">
          -143 74 hstem
          28 71 36 71 vstem
          64 -69 rmoveto
          -86 callgsubr
          107 hmoveto
          -21 -15 -17 -20 -20 15 -17 21 22 13 17 20 20 -13 17 -22 hvcurveto
          endchar
        </CharString>
        <CharString name="uni05B6">
          -240 74 23 74 hstemhm
          28 71 -18 71 -17 71 hintmask 01101000
          64 -69 rmoveto
          -86 callgsubr
          107 hmoveto
          -21 -15 -17 -20 -20 15 -17 21 22 13 17 20 20 -13 17 -22 hvcurveto
          hintmask 11010000
          -54 -97 rmoveto
          -22 -14 -17 -63 callsubr
          21 14 18 20 19 -14 17 -21 hvcurveto
          endchar
        </CharString>
        <CharString name="uni05B7">
          -110 41 hstem
          28 170 vstem
          198 -69 rmoveto
          -170 -41 170 hlineto
          endchar
        </CharString>
        <CharString name="uni05B8">
          -110 41 hstem
          48 callgsubr
          vstem
          198 -69 rmoveto
          -170 -41 66 hlineto
          -5 -100 rlineto
          48 hlineto
          -6 100 rlineto
          67 hlineto
          endchar
        </CharString>
        <CharString name="uni05B9">
          19 callgsubr
          594 -102 callsubr
          endchar
        </CharString>
        <CharString name="uni05BA">
          19 callgsubr
          519 rmoveto
          -68 callgsubr
          -20 14 -18 22 hvcurveto
          endchar
        </CharString>
        <CharString name="uni05BB">
          -287 74 -2 74 -2 74 hstemhm
          28 71 1 71 1 71 hintmask 10110100
          64 -69 rmoveto
          -86 callgsubr
          hintmask 01001000
          72 -72 rmoveto
          -86 callgsubr
          hintmask 10110100
          72 -72 rmoveto
          -86 callgsubr
          endchar
        </CharString>
        <CharString name="uni05BC">
          251 75 46 callgsubr
          326 -102 callsubr
          endchar
        </CharString>
        <CharString name="uni05BE">
          -249 445 6 callsubr
          45 246 vstem
          45 445 rmoveto
          246 134 -246 hlineto
          endchar
        </CharString>
        <CharString name="uni05BF">
          518 60 hstem
          32 189 vstem
          221 578 rmoveto
          -189 -60 189 hlineto
          endchar
        </CharString>
        <CharString name="uni05C1">
          19 callgsubr
          594 -102 callsubr
          endchar
        </CharString>
        <CharString name="uni05C2">
          19 callgsubr
          594 -102 callsubr
          endchar
        </CharString>
        <CharString name="uni05C7">
          -110 41 hstem
          28 106 vstem
          134 -69 rmoveto
          -106 -41 42 hlineto
          -13 -100 rlineto
          48 hlineto
          -14 100 rlineto
          43 hlineto
          endchar
        </CharString>
        <CharString name="uni05D0">
          64 21 -21 hstem
          15 609 vstem
          -90 callsubr
          endchar
        </CharString>
        <CharString name="uni05D1">
          -33 18 callgsubr
          281 -30 callsubr
          endchar
        </CharString>
        <CharString name="uni05D2">
          -133 21 -21 hstem
          205 -48 callgsubr
          endchar
        </CharString>
        <CharString name="uni05D3">
          -34 2 callgsubr
          239 -14 callgsubr
          endchar
        </CharString>
        <CharString name="uni05D4">
          3 0 342 -321 -21 445 134 hstemhm
          42 182 147 182 hintmask 01111000
          -17 callgsubr
          hintmask 10111000
          342 -157 vlineto
          -25 -67 rlineto
          endchar
        </CharString>
        <CharString name="uni05D5">
          -307 21 -21 hstem
          51 6 callgsubr
          51 hmoveto
          -6 callsubr
          endchar
        </CharString>
        <CharString name="uni05D6">
          -171 2 callgsubr
          97 6 callgsubr
          97 -12 callsubr
          92 134 -364 -134 101 hlineto
          -17 -22 -12 -41 -54 vvcurveto
          endchar
        </CharString>
        <CharString name="uni05D7">
          28 2 callgsubr
          48 182 159 6 callgsubr
          396 579 rmoveto
          -348 -86 hlineto
          -493 182 445 114 vlineto
          -18 callsubr
          -400 182 390 vlineto
          -33 callgsubr
          endchar
        </CharString>
        <CharString name="uni05D8">
          27 11 -21 462.5 138 hstem
          418 -50 callgsubr
          endchar
        </CharString>
        <CharString name="uni05D9">
          -307 210 369 hstem
          51 6 callgsubr
          51 210 rmoveto
          181 30 1 63 rlineto
          159 vlineto
          -35 callsubr
          endchar
        </CharString>
        <CharString name="uni05DA">
          -68 445 6 callsubr
          290 -7 callgsubr
          endchar
        </CharString>
        <CharString name="uni05DB">
          -92 18 callgsubr
          281 -38 callsubr
          endchar
        </CharString>
        <CharString name="uni05DC">
          -75 2 callgsubr
          25 162 vstem
          -7 callsubr
          endchar
        </CharString>
        <CharString name="uni05DD">
          13 18 callgsubr
          40 182 154 6 callgsubr
          383 579 rmoveto
          -161 hlineto
          -182 -579 37 hlineto
          299 hlineto
          182 390 hlineto
          -33 callgsubr
          -161 -445 rmoveto
          311 109 vlineto
          -18 callsubr
          -266 vlineto
          endchar
        </CharString>
        <CharString name="uni05DE">
          27 callgsubr
          323.23 143 hstemhm
          455 172 hintmask 01110000
          -45 callgsubr
          hintmask 10110000
          49 callsubr
          hintmask 01110000
          195 -74 111 -154 vhcurveto
          endchar
        </CharString>
        <CharString name="uni05DF">
          -307 -200 779 hstem
          51 6 callgsubr
          51 -200 rmoveto
          182 662 hlineto
          -35 callsubr
          endchar
        </CharString>
        <CharString name="uni05E0">
          -197 0 6 callsubr
          164 -22 callsubr
          endchar
        </CharString>
        <CharString name="uni05E1">
          42 11 -21 455 6 callsubr
          402 -58 callgsubr
          endchar
        </CharString>
        <CharString name="uni05E2">
          16 -44 623 hstem
          385 180 vstem
          385 579 rmoveto
          -1 -233 15 -133 -88 -49 -90 415 rcurveline
          -182 hlineto
          107 -454 -149 -28 25 -141 240 46 305 61 -3 213 1 303 rlinecurve
          endchar
        </CharString>
        <CharString name="uni05E3">
          -12 226 107 47 callsubr
          hstem
          31 162 153 6 callgsubr
          -43 callsubr
          endchar
        </CharString>
        <CharString name="uni05E4">
          -19 18 callgsubr
          50 callgsubr
          163 6 callgsubr
          -59 callgsubr
          endchar
        </CharString>
        <CharString name="uni05E5">
          -15 -200 779 hstem
          25 525 vstem
          550 579 rmoveto
          -171 hlineto
          -107 -246 -75 246 14 callsubr
          238 -779 rlineto
          172 hlineto
          -95 310 rlineto
          endchar
        </CharString>
        <CharString name="uni05E6">
          -2 0 6 callsubr
          25 533 -26 callgsubr
          endchar
        </CharString>
        <CharString name="uni05E7">
          28 -1 134 312 6 callsubr
          35 182 170 -28 callsubr
          -223 -333 34 callgsubr
        </CharString>
        <CharString name="uni05E8">
          -88 2 callgsubr
          270 -4 callsubr
          endchar
        </CharString>
        <CharString name="uni05E9">
          124 11 -21 hstem
          271 171 50 181.5 vstem
          674 399 -102 callgsubr
          endchar
        </CharString>
        <CharString name="uni05EA">
          66 2 callgsubr
          97 182 145 -36 callgsubr
          endchar
        </CharString>
        <CharString name="uni1E06">
          27 8 callgsubr
          88 32 callgsubr
          -78 308 -90 168 -138 168 hintmask 11111001
          16 callgsubr
          hintmask 11111010
          -29 callgsubr
          hintmask 11111001
          43 callgsubr
          hintmask 11110100
          -148 -328 -72 callsubr
        </CharString>
        <CharString name="uni1E07">
          -5 8 callgsubr
          76 24 callsubr
          -94 308 -76 176 hintmask 0000000000000000
          hintmask 1010111010000000
          -3 callgsubr
          hintmask 1001111010000000
          -696 134 vlineto
          hintmask 1010111010000000
          44 callgsubr
          hintmask 1100111010000000
          -42 140 -37 callgsubr
          hintmask 1001110100000000
          -158 -324 -72 callsubr
        </CharString>
        <CharString name="uni1E0C">
          57 -31 callsubr
          62 138 374 138 4 callsubr
          -20 184 14 176 hintmask 01110100
          -69 callgsubr
          hintmask 11101100
          62 -372 -39 callgsubr
          endchar
        </CharString>
        <CharString name="uni1E0D">
          -5 -31 callsubr
          50 -13 callgsubr
          -4 184 -42 -75 callgsubr
          14 -362 -39 callgsubr
          endchar
        </CharString>
        <CharString name="uni1E0E">
          57 8 callgsubr
          88 138 374 138 4 callsubr
          -82 308 -48 176 hintmask 11110100
          -69 callgsubr
          hintmask 11101000
          -92 -334 -72 callsubr
        </CharString>
        <CharString name="uni1E0F">
          -5 8 callgsubr
          76 -13 callgsubr
          -66 308 -104 -75 callgsubr
          -140 -324 -72 callsubr
        </CharString>
        <CharString name="uni1E20">
          -2 callgsubr
          54 108 hstemhm
          21 callgsubr
          -6 316 -90 152 hintmask 00000000
          hintmask 11110100
          214 -16 callgsubr
          hintmask 11111010
          158 -836 rmoveto
          -94 callgsubr
          18 callsubr
          hvcurveto
          endchar
        </CharString>
        <CharString name="uni1E21">
          -31 callgsubr
          76 108 -12 callgsubr
          -62 308 -124 42 callgsubr
          126 -16 callsubr
          hintmask 1111011000010000
          114 -902 -95 callsubr
        </CharString>
        <CharString name="uni1E24">
          97 31 callgsubr
          258 150 242 -20 4 callsubr
          4 184 6 172 hintmask 01111010
          -37 callsubr
          hintmask 11110100
          268 -884 -39 callgsubr
          endchar
        </CharString>
        <CharString name="uni1E25">
          -3 -234 172 83 -24 callsubr
          -22 184 -36 172 hintmask 11011101
          58 5 callgsubr
          hintmask 11101101
          -84 callsubr
          hintmask 11011010
          242 -930 -39 callgsubr
          endchar
        </CharString>
        <CharString name="uni1E2A">
          97 -234 106 149 -21 258 150 242 -20 4 callsubr
          174 96 -76 172 hintmask 11111010
          -37 callsubr
          268 -884 rmoveto
          118 54 66 94 2 hvcurveto
          hintmask 11111100
          -96 16 rlineto
          -40 -6 -24 -30 -48 hhcurveto
          -48 -24 30 40 -6 hvcurveto
          -96 -16 rlineto
          hintmask 11111010
          -22 callgsubr
          endchar
        </CharString>
        <CharString name="uni1E2B">
          -3 -234 106 149 -24 callsubr
          126 172 hintmask 11011110
          58 5 callgsubr
          hintmask 11101110
          -84 callsubr
          242 -930 rmoveto
          -88 callsubr
          -22 callgsubr
          endchar
        </CharString>
        <CharString name="uni1E32">
          43 31 callgsubr
          650 -20 4 callsubr
          -2 184 hintmask 11110000
          -67 callsubr
          hintmask 11101000
          262 -884 -39 callgsubr
          endchar
        </CharString>
        <CharString name="uni1E33">
          -17 31 callgsubr
          500 -20 216 -20 hstemhm
          58 168 -14 184 hintmask 11111000
          -64 callgsubr
          hintmask 11110100
          246 -930 -39 callgsubr
          endchar
        </CharString>
        <CharString name="uni1E34">
          43 8 callgsubr
          109 5 callsubr
          35 callgsubr
          -67 callsubr
          108 -846 -72 callsubr
        </CharString>
        <CharString name="uni1E35">
          -17 8 callgsubr
          109 -8 callgsubr
          216 -20 hstem
          58 168 vstem
          -64 callgsubr
          92 -892 -72 callsubr
        </CharString>
        <CharString name="uni1E62">
          -21 -31 callsubr
          50 -38 callgsubr
          hstemhm
          56 174 -40 184 -18 176 hintmask 11110100
          278 -12 -98 callgsubr
          hintmask 11101000
          4 -222 -39 callgsubr
          endchar
        </CharString>
        <CharString name="uni1E63">
          -133 -31 callsubr
          50 126 272 126 hstemhm
          44 160 -66 184 -56 160 hintmask 11110100
          212 -12 rmoveto
          -100 callgsubr
          -42 52 78 -28 64 hhcurveto
          hintmask 11101000
          18 -222 -39 callgsubr
          endchar
        </CharString>
        <CharString name="uni1E6C">
          -21 31 callgsubr
          506 144 hstemhm
          190 184 -178 172 hintmask 11101000
          -17 callsubr
          hintmask 11110000
          86 -740 -39 callgsubr
          endchar
        </CharString>
        <CharString name="uni1E6D">
          -185 -31 callsubr
          50 10 callgsubr
          hstemhm
          80 172 -114 184 hintmask 10111000
          3 callsubr
          hintmask 11011000
          -92 callsubr
          hintmask 10111000
          13 callgsubr
          hintmask 10110100
          -34 -222 -39 callgsubr
          endchar
        </CharString>
        <CharString name="uni1E6E">
          -21 8 callgsubr
          109 -21 506 144 hstem
          196 -30 callgsubr
          -17 callsubr
          -68 -702 -72 callsubr
        </CharString>
        <CharString name="uni1E6F">
          -185 8 callgsubr
          76 10 callgsubr
          hstemhm
          76 308 -304 172 hintmask 10110100
          3 callsubr
          hintmask 11010100
          -92 callsubr
          hintmask 10110100
          13 callgsubr
          hintmask 10111000
          -188 -184 -72 callsubr
        </CharString>
        <CharString name="uni1E7E">
          -13 -31 callsubr
          62 160 -139 5 callsubr
          hstemhm
          190 184 hintmask 10111000
          25 callsubr
          hintmask 11011000
          12 callgsubr
          292 -884 -39 callgsubr
          endchar
        </CharString>
        <CharString name="uni1E7F">
          -41 -31 callsubr
          62 126 374 -20 hstem
          182 184 -27 callgsubr
          262 -734 -39 callgsubr
          endchar
        </CharString>
        <CharString name="uni1E92">
          -43 -31 callsubr
          62 144 362 144 hstem
          190 184 vstem
          32 hmoveto
          -61 callgsubr
          250 -338 -39 callgsubr
          endchar
        </CharString>
        <CharString name="uni1E93">
          -111 -31 callsubr
          62 40 callsubr
          hstem
          158 184 vstem
          40 hmoveto
          -62 callsubr
          210 -326 -39 callgsubr
          endchar
        </CharString>
        <CharString name="uni1E94">
          -43 8 callgsubr
          88 144 362 144 hstemhm
          32 480 -384 308 hintmask 11110000
          32 hmoveto
          -61 callgsubr
          hintmask 11101000
          96 -300 -72 callsubr
        </CharString>
        <CharString name="uni1E95">
          -111 8 callgsubr
          88 40 callsubr
          hstemhm
          40 410 -354 308 hintmask 11110000
          40 hmoveto
          -62 callsubr
          hintmask 11101000
          56 -288 -72 callsubr
        </CharString>
        <CharString name="uni1E96">
          -3 8 callgsubr
          109 -24 callsubr
          126 172 hintmask 11011110
          58 5 callgsubr
          hintmask 11101110
          -84 callsubr
          88 -892 -72 callsubr
        </CharString>
        <CharString name="uni1EA0">
          -1 -234 172 83 -51 callsubr
          hstem
          196 184 vstem
          396 650 rmoveto
          -208 hlineto
          -198 -650 rlineto
          176 hlineto
          32 138 rlineto
          182 hlineto
          32 -138 rlineto
          182 hlineto
          -365 271 rmoveto
          11 45 16 62 16 78 14 66 rlinecurve
          4 hlineto
          16 -65 16 -79 16 -62 11 -45 rcurveline
          -61 -333 17 callgsubr
        </CharString>
        <CharString name="uni1EA1">
          -49 -31 callsubr
          50 132 -111 -21 33 -21 376 136 hstemhm
          38 164 -34 184 -42 20 callgsubr
          hintmask 10101101
          188 -12 -57 callgsubr
          hintmask 10011101
          12 -48 rlineto
          -105 callsubr
          hintmask 10101101
          -9 callgsubr
          hintmask 11001101
          -95 callgsubr
          hintmask 10011010
          12 -354 -39 callgsubr
          endchar
        </CharString>
        <CharString name="uni1EB8">
          -29 -31 callsubr
          62 -57 callsubr
          4 callsubr
          -46 184 hintmask 01111000
          72 hmoveto
          -88 callgsubr
          hintmask 11110100
          218 -884 -39 callgsubr
          endchar
        </CharString>
        <CharString name="uni1EB9">
          -59 -31 callsubr
          50 -46 callsubr
          hstemhm
          178 184 -18 146 hintmask 01110100
          490 270 -106 callgsubr
          hintmask 11111000
          -74 -372 17 callgsubr
        </CharString>
        <CharString name="uni1ECC">
          107 -31 callsubr
          50 28 callsubr
          34 184 34 176 vstem
          346 -12 rmoveto
          -107 callgsubr
          -370 vmoveto
          -105 callgsubr
          endchar
        </CharString>
        <CharString name="uni1ECD">
          -25 -31 callsubr
          50 138 248 138 hstemhm
          32 176 -20 184 -20 176 hintmask 11110100
          280 -12 rmoveto
          -104 callsubr
          hintmask 11101000
          -360 vmoveto
          -105 callgsubr
          endchar
        </CharString>
        <CharString name="uni200E">
          858 36 hstem
          -114 258 29 callgsubr
          -191 -36 191 hlineto
          -63 -66 rlineto
          endchar
        </CharString>
        <CharString name="uni200F">
          858 36 hstem
          -144 260 48 callsubr
          192 36 -193 hlineto
          63 64 -25 26 -105 -109 rlineto
          endchar
        </CharString>
        <CharString name="uni2010">
          -59 callsubr
        </CharString>
        <CharString name="uni2010.lat">
          -59 callsubr
        </CharString>
        <CharString name="uni202D">
          858 36 hstem
          -156 327 vstem
          -31 767 rmoveto
          104 108 -104 109 -26 -27 61 -63 rlineto
          -160 -36 162 hlineto
          -63 -66 rlineto
          123 -25 rmoveto
          105 108 -105 109 -25 -27 82 -82 -82 -83 rlineto
          endchar
        </CharString>
        <CharString name="uni202E">
          895 34 hstem
          -171 328 vstem
          -66 805 rmoveto
          25 26 -80 83 80 81 -25 26 -105 -107 rlineto
          202 -109 rmoveto
          28 26 -63 64 rlineto
          161 34 -161 hlineto
          63 66 -28 26 -102 -107 rlineto
          endchar
        </CharString>
        <CharString name="uni210A">
          7 -186 134 68 138 218 140 36 callgsubr
          42 174 140 172 hintmask 11001010
          262 -186 rmoveto
          170 96 70 132 hvcurveto
          hintmask 11010010
          484 -138 vlineto
          hintmask 11001110
          -12 -46 rlineto
          -4 hlineto
          42 -36 -40 16 -48 hhcurveto
          -102 -106 -100 -152 -140 80 -104 124 42 41 16 28 31 hvcurveto
          -4 -50 rlineto
          -35 -6 -22 -27 -66 hhcurveto
          -38 -50 10 24 -46 hvcurveto
          -56 -112 rlineto
          hintmask 11001010
          -38 60 78 -18 52 hhcurveto
          hintmask 11100110
          30 340 rmoveto
          -46 -30 37 71 75 34 35 38 22 26 -6 -18 20 hvcurveto
          -156 vlineto
          -30 -20 -18 -8 -26 hhcurveto
          endchar
        </CharString>
        <CharString name="uni2215">
          -79 callsubr
        </CharString>
        <CharString name="uni2215.lat">
          -79 callsubr
        </CharString>
        <CharString name="uni2219">
          -45 226 208 hstem
          170 200 vstem
          270 226 rmoveto
          -91 callsubr
          endchar
        </CharString>
        <CharString name="uniFB2A">
          124 11 -21 629 75 hstemhm
          271 171 50 181.5 -125.5 71 hintmask 00000000
          hintmask 11101000
          584 619 rmoveto
          -68 callgsubr
          -20 14 -18 22 hvcurveto
          hintmask 11110000
          90 -220 -102 callgsubr
          endchar
        </CharString>
        <CharString name="uniFB2B">
          124 11 -21 629 75 hstem
          71 71 129 171 50 181.5 vstem
          107 619 rmoveto
          -68 callgsubr
          -20 14 -18 22 hvcurveto
          567 -220 -102 callgsubr
          endchar
        </CharString>
        <CharString name="uniFB2C">
          124 11 -21 208 75 346 75 hstemhm
          271 26 callgsubr
          -125.5 71 hintmask 00000000
          hintmask 11110010
          584 619 rmoveto
          -68 callgsubr
          -20 14 -18 22 hvcurveto
          hintmask 11110100
          90 -220 -102 callgsubr
          hintmask 11101100
          -331 -163 rmoveto
          -20 14 -18 22 -68 callgsubr
          vhcurveto
          endchar
        </CharString>
        <CharString name="uniFB2D">
          124 11 -21 208 75 346 75 hstemhm
          71 71 129 26 callgsubr
          hintmask 11111010
          107 619 rmoveto
          -68 callgsubr
          -20 14 -18 22 hvcurveto
          567 -220 -102 callgsubr
          hintmask 11110110
          -331 -163 rmoveto
          -20 14 -18 22 -68 callgsubr
          vhcurveto
          endchar
        </CharString>
        <CharString name="uniFB2E">
          64 -94 41 74 -21 hstem
          250 170 vstem
          -90 callsubr
          -12 -53 rmoveto
          -170 -41 170 hlineto
          endchar
        </CharString>
        <CharString name="uniFB2F">
          64 -94 41 74 -21 hstem
          313.5 42.5 vstem
          -90 callsubr
          -12 -53 rmoveto
          -170 -41 66 hlineto
          -5 -100 rlineto
          48 hlineto
          -6 100 rlineto
          67 hlineto
          endchar
        </CharString>
        <CharString name="uniFB30">
          64 0 113 -92 -21 38 75 hstemhm
          264 71 hintmask 01110000
          -90 callsubr
          hintmask 10010000
          -132 113 rmoveto
          20 callsubr
          hvcurveto
          hintmask 01110000
          -20 14 -18 22 -60 callsubr
          vhcurveto
          hintmask 10010000
          -60 callgsubr
          vhcurveto
          endchar
        </CharString>
        <CharString name="uniFB31">
          -33 45 callgsubr
          120 71 90 -30 callsubr
          -336 162 -43 callgsubr
        </CharString>
        <CharString name="uniFB32">
          -133 21 -21 258 75 hstem
          76 71 58 -48 callgsubr
          -133 258 rmoveto
          -68 callgsubr
          -20 14 -18 22 hvcurveto
          endchar
        </CharString>
        <CharString name="uniFB33">
          -34 21 -21 -11 callsubr
          hstem
          90 71 78 -14 callgsubr
          -113 5 -102 callsubr
          endchar
        </CharString>
        <CharString name="uniFB34">
          3 0 342 -321 -21 258 84 103 134 hstemhm
          42 182 34 71 42 182 hintmask 01111010
          -17 callgsubr
          hintmask 10011010
          342 -157 vlineto
          -25 -67 rlineto
          hintmask 01111110
          252 58 -102 callsubr
          endchar
        </CharString>
        <CharString name="uniFB35">
          -258 21 -21 258 75 hstemhm
          2 71 27 182 hintmask 11010000
          100 hmoveto
          -6 callsubr
          hintmask 11110000
          -62 -129 -102 callsubr
          endchar
        </CharString>
        <CharString name="uniFB36">
          -156 21 -21 -11 callsubr
          hstem
          4 71 31 6 callgsubr
          106 -12 callsubr
          92 134 -364 -134 101 hlineto
          -17 -22 -12 -41 -54 vvcurveto
          -66 5 -102 callsubr
          endchar
        </CharString>
        <CharString name="uniFB38">
          27 11 -21 288 75 99.5 138 hstem
          290 71 57 -50 callgsubr
          291 -226 -102 callsubr
          endchar
        </CharString>
        <CharString name="uniFB39">
          -252 356 75 hstemhm
          5 71 30 182 hintmask 10100000
          106 210 rmoveto
          181 30 1 63 rlineto
          159 vlineto
          -35 callsubr
          hintmask 11100000
          -65 -31 -102 callsubr
          endchar
        </CharString>
        <CharString name="uniFB3A">
          -68 -11 callsubr
          hstem
          113 71 106 -7 callgsubr
          -141 -67 -102 callsubr
          endchar
        </CharString>
        <CharString name="uniFB3B">
          -92 45 callgsubr
          111 71 99 -38 callsubr
          127 199 -102 callsubr
          endchar
        </CharString>
        <CharString name="uniFB3C">
          -75 21 -21 -11 callsubr
          hstemhm
          25 162 -104 71 hintmask 10110000
          -7 callsubr
          hintmask 11101000
          -331 -283 -43 callgsubr
        </CharString>
        <CharString name="uniFB3E">
          27 callgsubr
          132.23 75 116 143 hstemhm
          317 71 67 172 hintmask 01110100
          -45 callgsubr
          hintmask 10110100
          49 callsubr
          hintmask 01110100
          195 -74 111 -154 vhcurveto
          hintmask 01111100
          -11 -296 -43 callgsubr
        </CharString>
        <CharString name="uniFB40">
          -197 0 134 124 75 hstem
          48 71 45 -22 callsubr
          51 199 -102 callsubr
          endchar
        </CharString>
        <CharString name="uniFB41">
          42 11 -21 278 75 102 6 callsubr
          285 71 46 -58 callgsubr
          58 193 -102 callsubr
          endchar
        </CharString>
        <CharString name="uniFB43">
          -12 -11 callsubr
          hstemhm
          31 162 58 71 24 182 hintmask 11101000
          -43 callsubr
          hintmask 11111000
          -26 -246 -102 callsubr
          endchar
        </CharString>
        <CharString name="uniFB44">
          -19 0 134 114 75 122 134 hstemhm
          50 callgsubr
          67 71 25 182 hintmask 11110100
          -59 callgsubr
          hintmask 11111100
          259 189 -102 callsubr
          endchar
        </CharString>
        <CharString name="uniFB46">
          -2 0 134 58 75 hstem
          87 71 -26 callgsubr
          -247 3 -43 callgsubr
        </CharString>
        <CharString name="uniFB47">
          28 -1 134 145 67 100 6 callsubr
          35 182 41 71 58 -28 callsubr
          36 220 -102 callsubr
          -259 -553 34 callgsubr
        </CharString>
        <CharString name="uniFB48">
          -88 21 -21 -11 callsubr
          hstem
          113 71 86 -4 callsubr
          -121 -67 -102 callsubr
          endchar
        </CharString>
        <CharString name="uniFB49">
          124 11 -21 208 75 hstemhm
          271 26 callgsubr
          hintmask 11101000
          674 399 -102 callgsubr
          hintmask 11011000
          -331 -163 rmoveto
          -20 14 -18 22 -68 callgsubr
          vhcurveto
          endchar
        </CharString>
        <CharString name="uniFB4A">
          66 21 -21 -11 callsubr
          hstem
          97 182 36 71 38 -36 callgsubr
          336 230 -102 callsubr
          endchar
        </CharString>
        <CharString name="uniFB4B">
          -307 21 -21 647 75 hstemhm
          51 182 -149 71 hintmask 00000000
          hintmask 11010000
          120 722 -102 callsubr
          hintmask 11100000
          -69 -722 rmoveto
          -6 callsubr
          endchar
        </CharString>
        <CharString name="upsilonlatin">
          -21 15 callsubr
          240 134 hstemhm
          26 225 -215 172 105 225 -182 20 callgsubr
          hintmask 11010100
          282 -12 rmoveto
          157 89 107 103 hvcurveto
          hintmask 11101000
          72 -32 58 -34 35 vhcurveto
          3 76 134 -225 -111 vlineto
          hintmask 11010100
          31 -47 12 -38 -69 vvcurveto
          -63 -22 -46 -52 -52 -22 46 63 vhcurveto
          hintmask 11101000
          69 12 38 31 47 vhcurveto
          111 -225 -134 76 -3 vlineto
          hintmask 11011000
          -34 -35 -32 -58 -72 vvcurveto
          hintmask 11010100
          -103 89 -107 157 vhcurveto
          endchar
        </CharString>
        <CharString name="v">
          -41 0 126 374 -20 hstem
          12 520 -27 callgsubr
          endchar
        </CharString>
        <CharString name="w">
          213 0 138 183 179 0 -20 hstemhm
          24 750 hintmask 10110000
          144 hmoveto
          196 hlineto
          34 174 rlineto
          hintmask 11010000
          8 46 6 46 8 55 rrcurveto
          4 hlineto
          8 -55 8 -46 8 -46 36 -174 rcurveline
          200 hlineto
          114 500 rlineto
          -158 hlineto
          -38 -210 -8 -50 -4 -50 -8 -52 rlinecurve
          -4 hlineto
          -10 52 -8 50 -12 50 -48 210 rcurveline
          -146 hlineto
          -46 -210 -12 -48 -8 -52 -8 -52 rlinecurve
          -4 hlineto
          -8 52 -4 50 -8 50 -38 210 rcurveline
          -170 hlineto
          endchar
        </CharString>
        <CharString name="x">
          -45 11 callgsubr
          hstem
          14 512 vstem
          14 hmoveto
          178 hlineto
          28 70 11 29 12 29 11 28 rlinecurve
          4 hlineto
          15 -28 14 -30 15 -28 40 -70 rcurveline
          184 hlineto
          -150 240 142 260 rlineto
          -178 hlineto
          -24 -70 -9 -28 -12 -30 -9 -28 rlinecurve
          -4 hlineto
          -40 86 -36 70 rlineto
          -184 hlineto
          142 -240 rlineto
          endchar
        </CharString>
        <CharString name="y">
          26 callsubr
          hstemhm
          12 518 hintmask 00000000
          hintmask 10110000
          132 -188 -85 callsubr
          hintmask 01110000
          -30 -130 rlineto
          hintmask 10110000
          39 callgsubr
        </CharString>
        <CharString name="yacute">
          26 callsubr
          176 -20 hstemhm
          12 518 hintmask 01111000
          25 callgsubr
          hintmask 10111000
          -84 -844 -85 callsubr
          hintmask 01111000
          -30 -130 rlineto
          hintmask 10111000
          39 callgsubr
        </CharString>
        <CharString name="ydieresis">
          26 callsubr
          82 160 hstemhm
          86 35 callsubr
          hintmask 01111100
          166 -98 callsubr
          hintmask 10111100
          -262 -750 -85 callsubr
          hintmask 01111100
          -30 -130 rlineto
          hintmask 10111100
          39 callgsubr
        </CharString>
        <CharString name="yen">
          -73 callsubr
        </CharString>
        <CharString name="yen.heb">
          -45 endchar
        </CharString>
        <CharString name="yen.lat">
          -73 callsubr
        </CharString>
        <CharString name="z">
          -111 0 40 callsubr
          hstem
          40 410 vstem
          40 hmoveto
          -62 callsubr
          endchar
        </CharString>
        <CharString name="zcaron">
          -111 0 40 callsubr
          78 31 callsubr
          40 414 hintmask 00000000
          hintmask 11101100
          172 -8 callsubr
          -26 -706 rmoveto
          -62 callsubr
          endchar
        </CharString>
        <CharString name="zero">
          -90 callgsubr
        </CharString>
        <CharString name="zero.heb">
          -90 callgsubr
        </CharString>
        <CharString name="zero.lat">
          -90 callgsubr
        </CharString>
        <CharString name="zero.pnumheb">
          -45 endchar
        </CharString>
        <CharString name="zero.pnumlat">
          -85 endchar
        </CharString>
        <CharString name="zero.slash">
          -85 endchar
        </CharString>
        <CharString name="zero.slashpnum">
          -85 endchar
        </CharString>
      <CharString index="0">
        180 122 126 214 213 -122 121 -180 -180 -122 -120 -214 -214 122 -126 180 hvcurveto
        148 vmoveto
        -78 -48 74 118 118 48 68 78 78 48 -68 -118 -118 -48 -74 -78 hvcurveto
        return
      </CharString>
      <CharString index="1">
        rmoveto
        -28 callgsubr
        -122 -118 -100 -162 -166 112 -96 146 56 72 20 38 54 vhcurveto
        -56 102 rlineto
        -20 -36 -32 -10 -34 hhcurveto
        -49 -52 17 63 -18 hvcurveto
        288 hlineto
        3 12 4 30 30 vvcurveto
        -295 40 rmoveto
        53 14 33 19 34 hhcurveto
        52 16 -34 -38 hvcurveto
        return
      </CharString>
      <CharString index="2">
        54 38 36 50 50 -38 36 -54 -54 -38 -36 -50 -50 38 -36 54 hvcurveto
        return
      </CharString>
      <CharString index="3">
        -104 callsubr
        endchar
      </CharString>
      <CharString index="4">
        -12 rmoveto
        139 93 76 102 84 -47 50 -62 33 hvcurveto
        4 vlineto
        hintmask 11011000
        45 29 36 46 58 vvcurveto
        108 -80 68 -118 -124 -88 -68 -112 -66 34 -46 50 -38 vhcurveto
        -4 vlineto
        hintmask 11100100
        -60 -32 -44 -44 -74 vvcurveto
        -104 97 -70 129 vhcurveto
        hintmask 11011000
        38 390 rmoveto
        -60 24 -34 22 42 vvcurveto
        44 27 18 31 40 24 -26 -44 -28 -10 -26 -18 -26 vhcurveto
        hintmask 11100100
        -34 -272 rmoveto
        -44 -39 26 50 32 14 32 19 22 hvcurveto
        75 -32 44 -18 -46 vvcurveto
        -48 -31 -18 -38 vhcurveto
        endchar
      </CharString>
      <CharString index="5">
        rmoveto
        -1 180 rlineto
        -182 hlineto
        2 -190 1 -128 -40 -111 -195 -12 rlinecurve
        -11 92 rlineto
        157 47 37 104 133 vvcurveto
        65 -172 vlineto
        1 -69 1 -86 -3 -49 -35 -23 rlinecurve
        -27 227 14 callsubr
        78 -589 399 -15 164 152 -2 272 rlinecurve
        return
      </CharString>
      <CharString index="6">
        -50 -36 -36 -56 -50 38 -32 48 3 4 0 1 3 hvcurveto
        -60 -32 -39 -64 -28 vhcurveto
        36 -74 rlineto
        106 50 50 78 100 vvcurveto
        92 -36 54 -70 vhcurveto
        return
      </CharString>
      <CharString index="7">
        140 74 72 94 90 -68 38 -60 22 hvcurveto
        -50 18 -44 10 26 vvcurveto
        20 15 8 29 31 35 -16 -26 36 vhcurveto
        76 102 rlineto
        33 -44 -58 33 -82 hhcurveto
        -118 -80 -64 -98 -82 68 -43 58 -23 hvcurveto
        50 -20 46 -12 -26 vvcurveto
        -20 -14 -10 -36 -35 -41 16 34 -46 vhcurveto
        -76 -106 rlineto
        return
      </CharString>
      <CharString index="8">
        400 rmoveto
        -34 -54 -22 -41 -31 hvcurveto
        128 6 49 43 62 hhcurveto
        36 40 -22 -22 20 hvcurveto
        90 102 rlineto
        42 -42 -66 38 -90 hhcurveto
        -136 -126 -110 -230 -230 126 -88 122 120 100 80 136 136 -84 60 -108 hvcurveto
        -32 -284 rmoveto
        -31 -38 21 89 -14 hvcurveto
        39 23 29 15 29 hhcurveto
        36 34 -15 -61 -67 -32 -21 -36 hvcurveto
        endchar
      </CharString>
      <CharString index="9">
        rmoveto
        162 92 98 110 90 -46 56 -81 32 hvcurveto
        -79 31 rlineto
        -59 23 -37 11 31 vvcurveto
        29 26 15 42 48 38 -16 -31 44 vhcurveto
        86 108 rlineto
        59 -60 -82 28 -74 hhcurveto
        -142 -100 -91 -111 -94 61 -59 70 -28 hvcurveto
        81 -34 rlineto
        55 -22 33 -10 -31 vvcurveto
        -29 -22 -17 -52 -48 -58 26 37 -46 vhcurveto
        -98 -118 rlineto
        -63 70 94 -30 82 hhcurveto
        return
      </CharString>
      <CharString index="10">
        -78 callsubr
        260 hmoveto
        -93 callgsubr
      </CharString>
      <CharString index="11">
        339 -178 102 110 104 -94 106 190 108 128 102 hstemhm
        48 114 98 128 382 106 hintmask 11011111
        438 -178 rmoveto
        72 64 14 32 62 hvcurveto
        -36 92 rlineto
        -20 -40 -60 -16 -48 hhcurveto
        -150 -140 88 198 222 168 144 168 202 70 -132 -136 -102 -54 -68 -60 -40 -14 24 50 12 hvcurveto
        48 228 rlineto
        -104 hlineto
        -16 -42 rlineto
        -2 hlineto
        36 -16 -26 14 -32 hhcurveto
        -114 -92 -122 -128 hvcurveto
        hintmask 10111111
        -92 54 -62 82 40 54 26 40 26 vhcurveto
        2 hlineto
        hintmask 11011111
        -48 12 49 -28 59 hhcurveto
        110 128 92 186 214 -142 152 -222 -254 -210 -188 -284 -264 188 -120 202 hvcurveto
        hintmask 10111111
        -4 328 rmoveto
        -30 -16 21 37 54 32 78 52 18 15 -10 -14 7 hvcurveto
        -22 -126 rlineto
        -30 -22 -16 -10 -18 hhcurveto
        endchar
      </CharString>
      <CharString index="12">
        60 132 rmoveto
        -30 -16 13 23 28 26 26 82 12 hvcurveto
        -68 vlineto
        -20 -18 -16 -14 -28 hhcurveto
        return
      </CharString>
      <CharString index="13">
        92 82 36 44 46 hvcurveto
        310 -248 -140 96 -90 vlineto
        -8 -12 -20 -4 -18 hhcurveto
        -116 -54 68 122 118 66 70 88 52 32 -20 -28 32 hvcurveto
        90 110 rlineto
        46 -46 -70 40 -96 hhcurveto
        -174 -150 -124 -218 return
      </CharString>
      <CharString index="14">
        -101 callgsubr
        endchar
      </CharString>
      <CharString index="15">
        -45 -92 126 -15 -21 568 126 hstemhm
        34 144 -94 154 54 154 -84 144 hintmask 01110010
        506 284 rmoveto
        hintmask 01101010
        180 -268 16 56 vvcurveto
        22 15 8 29 31 40 -21 -27 31 vhcurveto
        78 106 rlineto
        33 -42 -66 35 -82 hhcurveto
        -117 -71 -64 -98 -34 10 -27 17 -22 hvcurveto
        hintmask 10110100
        -48 -31 -29 -50 -46 -190 258 0 -64 vvcurveto
        -20 -14 -12 -36 -34 -38 16 34 -32 vhcurveto
        hintmask 01110010
        -98 -86 rlineto
        hintmask 10110100
        -62 46 82 -28 74 hhcurveto
        137 67 72 94 30 -8 25 -13 20 hvcurveto
        hintmask 01110010
        53 34 28 45 56 vvcurveto
        -328 48 rmoveto
        19 8 16 17 13 vhcurveto
        76 -36 83 -20 -54 vvcurveto
        -20 -8 -16 -17 -13 vhcurveto
        -74 38 -85 20 53 vvcurveto
        endchar
      </CharString>
      <CharString index="16">
        272 rmoveto
        -68 362 -214 hlineto
        -216 -372 rlineto
        -120 270 -142 160 142 68 vlineto
        -336 130 rmoveto
        58 108 18 38 18 38 16 38 rlinecurve
        4 hlineto
        -2 -43 -4 -64 -43 vvcurveto
        -72 vlineto
        endchar
      </CharString>
      <CharString index="17">
        -45 -12 132 394 132 hstem
        34 162 148 162 vstem
        270 -12 rmoveto
        140 96 115 217 216 -96 110 -140 -140 -96 -109 -217 -217 96 -115 140 hvcurveto
        132 vmoveto
        -40 -34 32 168 168 34 26 40 40 34 -26 -168 -168 -34 -32 -40 hvcurveto
        endchar
      </CharString>
      <CharString index="18">
        -45 -110 236 -115 -21 27 -21 512 236 -104 -20 22 -20 hstemhm
        58 164 -10 112 -8 19 callsubr
        hintmask 0011001010000000
        480 194 rmoveto
        182 -258 4 76 vvcurveto
        40 21 12 43 37 31 -16 -32 36 vhcurveto
        hintmask 0010010010000000
        85 98 rlineto
        hintmask 0010010100000000
        -40 42 -48 32 -63 10 rrcurveto
        hintmask 0011000100000000
        102 -112 vlineto
        hintmask 0010100100000000
        -104 vlineto
        hintmask 1000101010000000
        -97 -21 -57 -70 -101 -175 258 -11 -80 vvcurveto
        -39 -20 -17 -50 -42 -42 16 40 -54 vhcurveto
        hintmask 0100010100000000
        -74 -116 50 -45 71 -24 57 -7 rlinecurve
        hintmask 1000010100000000
        -100 112 vlineto
        hintmask 0010010100000000
        106 vlineto
        hintmask 0011001010000000
        105 25 51 76 97 vvcurveto
        endchar
      </CharString>
      <CharString index="19">
        430 144 -258 116 212 144 -212 102 248 144 -420 hlineto
        return
      </CharString>
      <CharString index="20">
        -22 -14 -18 -63 callsubr
        return
      </CharString>
      <CharString index="21">
        -46 callgsubr
        22 13 17 20 20 -13 17 -22 hvcurveto
        return
      </CharString>
      <CharString index="22">
        rmoveto
        84 75 32 64 55 hvcurveto
        -90 108 rlineto
        -30 -28 -40 -26 -50 hhcurveto
        -84 -56 68 122 118 66 70 76 44 32 -20 -28 32 hvcurveto
        90 110 rlineto
        46 -46 -70 40 -86 hhcurveto
        -164 34 callsubr
        144 -110 166 hvcurveto
        endchar
      </CharString>
      <CharString index="23">
        -45 0 144 122 104 138 138 hstemhm
        110 164 -122 150 hintmask 00000000
        hintmask 11101000
        264 148 rmoveto
        28 34 10 27 39 vvcurveto
        6 0 6 -1 6 vhcurveto
        123 104 hlineto
        hintmask 11110000
        -144 hlineto
        -3 18 -3 17 17 vvcurveto
        62 32 24 46 26 22 -12 -26 22 vhcurveto
        92 92 rlineto
        56 -48 -56 28 -76 hhcurveto
        -128 -96 -82 -132 -19 5 -21 7 -22 hvcurveto
        -2 hlineto
        hintmask 11101000
        -68 -6 rlineto
        -98 99 vlineto
        1 -5 0 -6 -5 vvcurveto
        -70 -50 -50 -56 -24 vhcurveto
        -106 468 144 -250 vlineto
        endchar
      </CharString>
      <CharString index="24">
        558 rmoveto
        128 84 rlineto
        4 hlineto
        128 -84 64 60 -106 128 rlineto
        -176 hlineto
        -106 -128 rlineto
        return
      </CharString>
      <CharString index="25">
        rmoveto
        134 140 rlineto
        120 vlineto
        -134 140 -62 -50 108 -150 -108 -150 rlineto
        return
      </CharString>
      <CharString index="26">
        -225 -152 90 290 100 290 90 hstemhm
        112 142 -62 138 hintmask 11110000
        52 -152 rmoveto
        70 hlineto
        92 40 36 110 hvcurveto
        70 -10 30 62 vvcurveto
        hintmask 11101000
        34 22 36 64 2 vhcurveto
        100 vlineto
        hintmask 11110000
        -64 2 -22 36 34 62 10 30 70 vvcurveto
        110 -40 36 -92 vhcurveto
        -70 -90 16 hlineto
        37 11 -10 -52 hvcurveto
        -51 -4 -47 -58 vvcurveto
        -80 27 -28 53 -12 vhcurveto
        -4 vlineto
        -53 -12 -27 -28 -80 -58 4 -47 -51 vvcurveto
        -52 -11 -10 -37 vhcurveto
        -16 hlineto
        endchar
      </CharString>
      <CharString index="27">
        rmoveto
        -3 -4 0 -1 -3 hvcurveto
        60 32 39 64 28 vhcurveto
        -36 74 rlineto
        -106 -50 -50 -78 -100 vvcurveto
        -92 36 -54 70 50 36 36 56 50 -38 32 -48 vhcurveto
        endchar
      </CharString>
      <CharString index="28">
        -45 21 -21 180 108 96 108 158 -20 hstem
        124 98 92 98 vstem
        84 hmoveto
        98 hlineto
        22 180 rlineto
        92 hlineto
        -22 -180 rlineto
        98 hlineto
        22 180 rlineto
        96 108 -84 hlineto
        12 96 rlineto
        92 108 -78 hlineto
        18 158 rlineto
        -96 hlineto
        -20 -158 rlineto
        -92 hlineto
        18 158 rlineto
        -96 hlineto
        -20 -158 rlineto
        -90 -108 76 hlineto
        -12 -96 rlineto
        -84 -108 72 hlineto
        110 108 rmoveto
        12 96 rlineto
        92 hlineto
        -12 -96 rlineto
        endchar
      </CharString>
      <CharString index="29">
        -107 14 callgsubr
        556 138 hstemhm
        126 200 -52 164 hintmask 01101000
        152 244 rmoveto
        150 hlineto
        -10 110 146 32 120 vvcurveto
        126 -88 50 -110 -80 -69 -38 -56 -49 vhcurveto
        94 -86 rlineto
        24 26 22 18 34 hhcurveto
        30 26 -14 -36 -64 -142 -56 20 -130 hvcurveto
        hintmask 01110000
        74 -256 46 callsubr
        hvcurveto
        hintmask 10110000
        58 -42 46 -58 -58 -42 -46 -58 vhcurveto
        hintmask 01110000
        -58 42 -46 58 vhcurveto
        endchar
      </CharString>
      <CharString index="30">
        -45 512 -20 164 -20 hstem
        60 166 54 92 vstem
        500 106 rmoveto
        -68 108 -17 -13 -20 -12 -23 -5 rlinecurve
        245 vlineto
        14 -3 14 -7 16 -13 78 106 rcurveline
        -29 29 -43 21 -50 5 rrcurveto
        89 -92 -94 vlineto
        -128 -23 -92 -91 -142 vvcurveto
        -148 86 -92 134 -19 vhcurveto
        -91 92 91 vlineto
        43 7 47 19 38 33 rrcurveto
        -274 200 rmoveto
        49 17 38 37 20 vhcurveto
        -214 vlineto
        -35 20 -19 38 49 vvcurveto
        endchar
      </CharString>
      <CharString index="31">
        -45 21 -21 490 144 hstem
        152 -30 callgsubr
        152 5 callgsubr
        12 247 16 110 146 171 rrcurveto
        106 -454 -144 272 vlineto
        -118 -163 -34 -127 -12 -200 rrcurveto
        endchar
      </CharString>
      <CharString index="32">
        172 hintmask 0000000000000000
        hintmask 1100111010000000
        240 -12 rmoveto
        44 48 24 34 34 hvcurveto
        4 hlineto
        hintmask 1010111010000000
        12 -46 rlineto
        140 696 -172 -162 hlineto
        6 -72 rlineto
        30 -30 -32 20 -54 hhcurveto
        -102 -102 -98 -164 hvcurveto
        hintmask 1100111010000000
        -32 callsubr
        hintmask 1101011010000000
        -34 callsubr
        hintmask 1100111010000000
        13 callsubr
        hintmask 1010110100000000
        return
      </CharString>
      <CharString index="33">
        rmoveto
        62 50 -108 150 108 150 -62 50 -134 -140 rlineto
        -120 vlineto
        return
      </CharString>
      <CharString index="34">
        12 -360 rmoveto
        -58 -40 14 32 14 6 10 12 12 hvcurveto
        -4 14 18 -2 40 hhcurveto
        39 hlineto
        43 24 -4 -26 -28 -42 -18 -56 hvcurveto
        endchar
      </CharString>
      <CharString index="35">
        -49 -12 132 -111 -21 33 -21 376 136 return
      </CharString>
      <CharString index="36">
        102 58 44 96 10 hvcurveto
        -92 16 rlineto
        -39 -9 -29 -19 -40 hhcurveto
        -40 -29 19 39 -9 hvcurveto
        -92 -16 rlineto
        -96 10 58 -44 102 hhcurveto
        return
      </CharString>
      <CharString index="37">
        -53 93 124 198 124 hstem
        203 126 vstem
        198 -80 rmoveto
        136 hlineto
        -10 178 168 -10 rlineto
        136 vlineto
        -168 -14 10 106 -10 106 168 -14 -64 callsubr
        14 -10 -106 10 -106 -168 14 51 callgsubr
      </CharString>
      <CharString index="38">
        72 hmoveto
        202 hlineto
        188 136 98 230 230 -136 92 -198 hvcurveto
        -192 hlineto
        172 -512 rmoveto
        374 10 vlineto
        94 74 -32 -152 -152 -74 -38 -94 hvcurveto
        return
      </CharString>
      <CharString index="39">
        -39 callsubr
        20 callsubr
        return
      </CharString>
      <CharString index="40">
        674 rmoveto
        196 120 -90 110 -182 -144 rlineto
        return
      </CharString>
      <CharString index="41">
        275 9 -21 674 -20 hstem
        208 444 vstem
        208 -12 rmoveto
        96 hlineto
        348 674 rlineto
        -96 hlineto
        endchar
      </CharString>
      <CharString index="42">
        -26 -38 56 -60 hhcurveto
        -80 -50 -45 -113 -2 hvcurveto
        106 -6 rlineto
        36 4 10 10 16 hhcurveto
        return
      </CharString>
      <CharString index="43">
        58 hmoveto
        168 120 hlineto
        52 58 100 -178 rlineto
        186 hlineto
        -188 292 178 208 rlineto
        -186 hlineto
        -138 -174 rlineto
        -4 370 -168 hlineto
        return
      </CharString>
      <CharString index="44">
        -1 21 -51 callsubr
        return
      </CharString>
      <CharString index="45">
        -225 14 callgsubr
        hstemhm
        80 200 -183 166 hintmask 01010000
        124 244 rmoveto
        112 hlineto
        24 278 6 148 14 callsubr
        6 -148 rlineto
        hintmask 01100000
        80 -534 46 callsubr
        hvcurveto
        hintmask 10100000
        58 -42 46 -58 -58 -42 -46 -58 vhcurveto
        hintmask 01100000
        -58 42 -46 58 vhcurveto
        endchar
      </CharString>
      <CharString index="46">
        480 144 -268 hlineto
        266 402 rlineto
        104 -452 -144 240 vlineto
        -266 -402 rlineto
        return
      </CharString>
      <CharString index="47">
        19 -13 18 -22 return
      </CharString>
      <CharString index="48">
        40 hmoveto
        269 hlineto
        147 85 109 150 hvcurveto
        61 vlineto
        150 -85 109 -147 vhcurveto
        -230 hlineto
        -41 -187 -16 -100 40 -88 162 2 rlinecurve
        26 110 -45 10 -15 16 6 33 rlinecurve
        14 70 rlineto
        54 hlineto
        66 29 -57 -58 hvcurveto
        -81 vlineto
        -58 -29 -57 -66 vhcurveto
        -224 hlineto
        return
      </CharString>
      <CharString index="49">
        180 vstem
        582 334 rmoveto
        -1 35 rlineto
        131 -4 -77 79 -140 hhcurveto
        -325 hlineto
        17 -134 52 -455 307 9 178 88 -7 247 rlinecurve
        -319 -184 rmoveto
        -30 295 rlineto
        114 hlineto
        31 24 -25 -49 hvcurveto
        -33 vlineto
        2 -107 6 -71 -147 -10 rrcurveto
        return
      </CharString>
      <CharString index="50">
        rmoveto
        54 44 24 36 40 hvcurveto
        4 hlineto
        return
      </CharString>
      <CharString index="51">
        -188 rmoveto
        150 44 102 112 hvcurveto
        474 vlineto
        54 17 20 43 9 7 -2 -4 10 vhcurveto
        30 126 rlineto
        8 -20 -23 6 -41 hhcurveto
        -158 -46 -102 -112 hvcurveto
        -474 vlineto
        -47 callgsubr
        return
      </CharString>
      <CharString index="52">
        -287 15 callsubr
        -117 -21 708 -9 callsubr
        hintmask 01110000
        212 -12 rmoveto
        38 28 6 8 18 hvcurveto
        hintmask 10110000
        -20 126 rlineto
        -2 -8 -4 0 -6 hhcurveto
        -12 -16 10 34 hvcurveto
        526 -172 -520 vlineto
        hintmask 01110000
        -112 38 -76 116 vhcurveto
        endchar
      </CharString>
      <CharString index="53">
        11 callsubr
        84 84 -158 188 -116 -114 rlineto
        return
      </CharString>
</ttFont>
